<svg xmlns="http://www.w3.org/2000/svg" xmlns:xlink="http://www.w3.org/1999/xlink" width="1024" height="1024" viewBox="122.378 82.331 154.214 154.214"><g id="svgg"><path id="path0" d="M216.667 113.793 C 216.667 114.763,218.134 117.477,219.440 118.922 L 220.587 120.192 230.659 120.192 C 242.012 120.192,242.044 120.198,244.563 122.769 C 246.578 124.824,246.523 123.612,246.413 163.417 L 246.314 199.431 244.829 200.775 C 242.023 203.315,241.169 203.356,227.404 201.595 C 226.170 201.438,221.771 201.014,217.628 200.654 C 213.486 200.295,208.005 199.727,205.449 199.393 C 202.893 199.059,199.359 198.618,197.596 198.413 C 195.833 198.208,193.454 197.910,192.308 197.751 C 191.162 197.592,188.349 197.233,186.058 196.954 C 183.766 196.675,179.655 196.164,176.923 195.819 C 174.191 195.475,170.729 195.048,169.231 194.870 C 167.732 194.693,164.271 194.248,161.538 193.881 C 158.806 193.514,155.417 193.091,154.006 192.941 C 142.573 191.728,141.599 191.367,140.757 188.035 C 140.191 185.793,139.564 126.363,140.090 124.806 C 141.216 121.477,142.834 120.513,147.296 120.513 C 148.939 120.513,150.363 120.384,150.460 120.226 C 150.733 119.784,149.448 114.998,148.976 114.698 C 148.186 114.197,141.354 114.370,140.820 114.904 C 140.555 115.168,140.069 115.385,139.740 115.385 C 139.410 115.385,139.048 115.535,138.934 115.718 C 138.821 115.902,138.452 115.964,138.114 115.857 C 137.720 115.732,137.500 115.814,137.500 116.086 C 137.500 116.319,136.995 116.931,136.378 117.445 C 135.761 117.960,135.256 118.644,135.256 118.966 C 135.256 119.288,135.112 119.551,134.936 119.551 C 134.760 119.551,134.615 119.916,134.615 120.363 C 134.615 120.809,134.399 121.257,134.135 121.358 C 133.408 121.637,133.415 135.737,134.142 136.016 C 134.648 136.210,134.796 166.490,134.323 172.917 C 133.940 178.121,134.268 190.705,134.787 190.705 C 135.074 190.705,135.256 191.016,135.256 191.506 C 135.256 191.947,135.401 192.308,135.577 192.308 C 135.753 192.308,135.897 192.596,135.897 192.949 C 135.897 193.301,136.042 193.590,136.218 193.590 C 136.394 193.590,136.538 193.806,136.538 194.071 C 136.538 194.335,136.689 194.551,136.874 194.551 C 137.243 194.551,138.782 195.996,138.782 196.342 C 138.782 196.619,140.465 198.076,140.785 198.077 C 140.917 198.077,141.026 198.231,141.026 198.420 C 141.026 198.931,141.869 199.679,142.445 199.679 C 142.722 199.679,142.949 199.824,142.949 200.000 C 142.949 200.176,143.294 200.321,143.716 200.321 C 144.138 200.321,144.569 200.546,144.675 200.822 C 144.781 201.097,145.011 201.234,145.186 201.126 C 145.362 201.017,145.902 201.296,146.387 201.746 C 146.872 202.196,147.419 202.564,147.602 202.564 C 147.785 202.564,148.143 202.853,148.397 203.205 C 148.652 203.558,149.044 203.846,149.269 203.846 C 149.495 203.846,149.679 204.063,149.679 204.327 C 149.679 204.645,149.998 204.808,150.622 204.808 C 151.141 204.808,151.654 204.952,151.763 205.128 C 151.872 205.304,152.962 205.449,154.186 205.449 C 155.455 205.449,156.410 205.586,156.410 205.769 C 156.410 205.954,157.425 206.090,158.814 206.090 C 160.203 206.090,161.218 206.225,161.218 206.410 C 161.218 206.602,162.489 206.731,164.389 206.731 C 166.901 206.731,167.598 206.830,167.743 207.208 C 167.889 207.588,168.309 207.645,169.810 207.488 C 171.374 207.324,171.729 207.380,171.895 207.812 C 172.051 208.217,172.546 208.333,174.125 208.333 C 175.241 208.333,176.304 208.483,176.487 208.666 C 176.679 208.858,178.404 208.999,180.568 208.999 C 182.886 208.999,184.245 209.117,184.127 209.307 C 184.010 209.497,185.224 209.615,187.287 209.615 C 189.969 209.615,190.673 209.711,190.821 210.096 C 190.950 210.432,191.473 210.577,192.554 210.577 C 193.406 210.577,194.297 210.757,194.534 210.978 C 194.883 211.301,194.917 211.293,194.711 210.931 C 194.506 210.572,194.639 210.533,195.385 210.732 C 195.896 210.868,197.506 211.044,198.963 211.122 C 200.471 211.204,201.532 211.393,201.428 211.562 C 201.322 211.733,202.193 211.859,203.488 211.859 C 204.722 211.859,205.821 212.003,205.929 212.179 C 206.038 212.356,206.900 212.500,207.845 212.500 C 208.919 212.500,209.623 212.650,209.724 212.901 C 209.853 213.221,209.890 213.221,209.911 212.901 C 209.947 212.323,212.500 212.360,212.500 212.938 C 212.500 213.282,212.982 213.341,214.744 213.215 C 216.672 213.077,216.987 213.129,216.987 213.579 C 216.987 214.017,217.380 214.103,219.391 214.103 C 220.780 214.103,221.795 214.238,221.795 214.423 C 221.795 214.616,223.130 214.744,225.160 214.744 C 227.190 214.744,228.526 214.871,228.526 215.064 C 228.526 215.243,229.387 215.385,230.468 215.385 C 231.681 215.385,232.335 215.505,232.212 215.705 C 232.084 215.911,233.265 216.026,235.524 216.026 C 238.470 216.026,239.066 216.109,239.234 216.547 C 239.401 216.982,239.745 217.034,241.304 216.857 C 242.780 216.690,243.259 216.749,243.581 217.137 C 243.869 217.484,244.587 217.628,246.033 217.628 C 247.182 217.628,248.077 217.769,248.077 217.949 C 248.077 218.150,250.160 218.269,253.686 218.269 C 257.212 218.269,259.295 218.150,259.295 217.949 C 259.295 217.772,259.496 217.628,259.741 217.628 C 259.987 217.628,260.274 217.403,260.380 217.127 C 260.486 216.852,260.718 216.716,260.895 216.826 C 261.073 216.935,261.218 216.800,261.218 216.525 C 261.218 216.250,261.447 216.026,261.727 216.026 C 262.294 216.026,263.434 214.806,263.451 214.183 C 263.457 213.962,263.606 213.782,263.782 213.782 C 263.958 213.782,264.103 213.557,264.103 213.282 C 264.103 213.008,264.247 212.872,264.423 212.981 C 264.614 213.099,264.744 212.717,264.744 212.038 C 264.744 211.233,264.886 210.897,265.229 210.897 C 265.956 210.897,265.942 129.326,265.215 129.047 C 264.944 128.943,264.744 128.454,264.744 127.895 C 264.744 127.360,264.599 126.923,264.423 126.923 C 264.247 126.923,264.103 126.707,264.103 126.442 C 264.103 126.178,263.958 125.962,263.782 125.962 C 263.606 125.962,263.462 125.738,263.462 125.465 C 263.462 125.193,263.101 124.635,262.660 124.227 C 262.220 123.818,261.859 123.181,261.859 122.810 C 261.859 122.366,261.707 122.194,261.414 122.306 C 261.164 122.402,260.481 121.975,259.859 121.335 C 259.249 120.706,258.512 120.192,258.221 120.192 C 257.930 120.192,257.692 120.048,257.692 119.872 C 257.692 119.696,257.394 119.551,257.028 119.551 C 256.319 119.551,255.449 118.858,255.449 118.292 C 255.449 118.103,255.232 117.949,254.968 117.949 C 254.704 117.949,254.487 117.804,254.487 117.628 C 254.487 117.452,254.199 117.308,253.846 117.308 C 253.494 117.308,253.205 117.163,253.205 116.987 C 253.205 116.811,252.989 116.667,252.724 116.667 C 252.460 116.667,252.244 116.468,252.244 116.226 C 252.244 115.984,251.811 115.699,251.282 115.593 C 250.753 115.487,250.321 115.243,250.321 115.049 C 250.321 114.391,249.407 113.782,248.420 113.782 C 247.879 113.782,247.436 113.638,247.436 113.462 C 247.436 113.252,242.094 113.141,232.051 113.141 C 216.796 113.141,216.667 113.147,216.667 113.793 M167.628 114.096 C 167.628 114.288,165.101 114.444,161.138 114.497 L 154.647 114.583 154.717 115.774 C 154.797 117.147,156.045 119.297,157.202 120.055 C 157.876 120.497,180.546 120.516,180.992 120.075 C 181.082 119.987,179.050 114.664,178.743 114.183 C 178.424 113.683,167.628 113.598,167.628 114.096 M185.256 114.683 C 185.256 115.823,186.357 118.162,187.434 119.311 L 188.261 120.192 200.541 120.192 C 207.295 120.192,212.821 120.068,212.821 119.916 C 212.821 119.764,212.408 118.719,211.904 117.592 C 211.399 116.466,210.892 115.148,210.776 114.663 L 210.565 113.782 197.911 113.782 L 185.256 113.782 185.256 114.683 " stroke="none" fill="#1f1e2f" fill-rule="evenodd"></path><path id="path1" d="M148.163 131.159 C 146.879 131.581,146.769 132.116,146.885 137.340 C 147.010 142.926,145.708 142.526,164.583 142.774 C 179.750 142.974,185.416 143.148,190.705 143.577 C 192.556 143.727,194.792 143.862,195.673 143.877 C 196.554 143.893,202.684 144.049,209.295 144.226 C 230.289 144.787,236.117 144.786,236.685 144.220 C 237.234 143.673,237.511 134.795,237.043 132.753 C 236.696 131.241,235.860 131.040,230.131 131.092 C 223.282 131.153,192.936 131.159,192.147 131.099 C 188.645 130.831,148.997 130.885,148.163 131.159 M180.365 149.026 C 178.818 149.325,178.714 149.448,178.644 151.060 C 178.469 155.090,179.125 155.757,183.274 155.766 C 185.878 155.771,186.126 155.529,186.388 152.726 C 186.664 149.787,186.478 149.505,184.075 149.205 C 183.083 149.081,182.114 148.938,181.921 148.887 C 181.728 148.835,181.028 148.898,180.365 149.026 M211.154 150.359 C 210.789 150.586,210.491 154.559,210.747 155.779 C 211.024 157.099,218.672 158.196,219.056 156.971 C 219.601 155.233,219.543 151.983,218.954 151.255 C 218.328 150.481,212.106 149.766,211.154 150.359 M227.815 151.397 C 227.172 152.040,227.052 157.134,227.668 157.645 C 228.147 158.043,234.357 158.618,235.978 158.414 L 237.179 158.263 237.179 154.952 C 237.179 152.754,237.052 151.562,236.802 151.407 C 235.924 150.864,228.356 150.856,227.815 151.397 M179.247 165.276 C 178.546 165.559,178.698 171.147,179.407 171.178 C 179.716 171.192,180.256 171.279,180.609 171.371 C 182.151 171.777,186.302 171.858,186.531 171.487 C 186.834 170.996,186.649 166.325,186.313 166.003 C 185.673 165.387,180.333 164.838,179.247 165.276 M194.551 169.354 C 194.551 173.239,194.131 172.917,199.190 172.917 L 202.387 172.917 202.829 172.003 C 203.477 170.664,203.055 167.770,202.069 166.784 C 201.368 166.082,201.058 166.026,197.931 166.026 L 194.551 166.026 194.551 169.354 M212.500 166.952 C 210.058 167.283,209.518 170.661,211.513 173.126 C 212.147 173.909,217.053 174.413,219.084 173.903 C 219.950 173.686,220.280 170.728,219.522 169.970 C 219.268 169.717,219.268 169.439,219.522 168.966 C 220.019 168.037,220.029 168.050,218.349 167.519 C 216.406 166.905,214.329 166.704,212.500 166.952 M228.300 168.349 C 227.649 169.209,227.226 171.506,227.432 173.061 C 227.700 175.080,228.260 175.302,233.354 175.406 L 237.019 175.481 237.019 172.115 L 237.019 168.750 233.654 168.379 C 229.154 167.884,228.655 167.881,228.300 168.349 M179.229 181.495 C 178.667 182.172,179.015 186.264,179.676 186.754 C 180.233 187.167,184.212 187.623,185.737 187.449 L 186.699 187.340 186.791 184.917 C 186.918 181.601,186.568 181.289,182.562 181.141 C 180.282 181.057,179.526 181.137,179.229 181.495 M194.551 185.070 C 194.551 187.848,194.817 188.462,196.017 188.462 C 196.400 188.462,197.395 188.763,198.228 189.131 C 199.467 189.679,200.014 189.752,201.233 189.529 L 202.724 189.257 202.971 186.856 C 203.398 182.710,203.025 182.408,197.516 182.434 L 194.551 182.448 194.551 185.070 M210.970 184.049 C 210.413 184.725,210.871 190.014,211.503 190.205 C 213.583 190.831,218.725 191.003,219.322 190.467 C 220.050 189.814,219.921 185.147,219.156 184.428 C 218.548 183.856,211.402 183.526,210.970 184.049 M227.564 188.220 C 227.564 191.660,227.388 191.441,230.803 192.251 C 234.020 193.014,236.443 193.086,236.784 192.429 C 237.723 190.615,237.371 186.184,236.251 185.714 C 235.968 185.596,233.898 185.425,231.651 185.335 L 227.564 185.171 227.564 188.220 " stroke="none" fill="#f77b47" fill-rule="evenodd"></path><path id="path2" d="M169.792 120.757 C 157.743 120.849,157.176 120.945,159.749 122.463 C 161.850 123.702,162.507 126.013,161.223 127.645 C 159.859 129.379,157.028 128.999,156.183 126.968 C 155.916 126.326,155.173 125.215,154.531 124.499 C 153.890 123.783,152.893 122.646,152.315 121.974 L 151.264 120.751 147.523 120.960 C 143.127 121.206,142.178 121.614,141.083 123.725 L 140.338 125.160 140.537 155.609 C 140.754 188.913,140.728 188.469,142.599 190.160 C 143.875 191.313,143.897 191.318,152.484 192.312 C 154.026 192.491,158.029 192.983,161.378 193.406 C 164.728 193.829,168.910 194.339,170.673 194.540 C 172.436 194.741,174.744 195.037,175.801 195.198 C 176.859 195.359,179.671 195.713,182.051 195.985 C 184.431 196.257,187.460 196.623,188.782 196.797 C 196.518 197.821,201.170 198.409,204.006 198.724 C 205.769 198.920,208.726 199.276,210.577 199.516 C 212.428 199.756,216.322 200.116,219.231 200.315 C 222.139 200.515,225.313 200.808,226.282 200.967 C 227.876 201.227,233.509 201.910,238.172 202.407 C 240.774 202.684,242.695 202.096,244.486 200.475 L 245.994 199.110 245.994 162.456 C 245.994 121.902,246.162 125.159,243.949 122.846 C 241.775 120.574,241.444 120.513,231.282 120.513 C 221.719 120.513,220.832 120.650,223.055 121.784 C 227.321 123.960,225.525 129.799,220.832 129.006 C 219.480 128.778,217.949 127.350,217.949 126.317 C 217.949 126.011,217.506 125.337,216.965 124.820 C 216.424 124.302,215.391 123.113,214.669 122.178 L 213.357 120.479 201.631 120.576 C 189.832 120.674,188.884 120.779,190.901 121.768 C 193.688 123.136,193.879 127.261,191.208 128.377 C 188.846 129.364,186.709 128.636,186.350 126.725 C 186.220 126.032,185.590 124.955,184.783 124.047 C 184.041 123.212,183.223 122.226,182.964 121.856 C 182.181 120.739,181.351 120.670,169.792 120.757 M212.448 129.897 L 236.916 129.968 237.528 130.725 C 238.188 131.539,238.481 144.161,237.862 145.135 C 237.249 146.103,235.809 146.108,210.256 145.229 C 204.704 145.038,197.420 144.809,194.071 144.720 C 190.721 144.632,183.077 144.410,177.083 144.228 C 143.018 143.192,146.627 143.486,146.199 141.714 C 145.794 140.038,145.777 132.081,146.176 130.866 C 146.607 129.554,145.140 129.627,168.750 129.737 C 179.327 129.786,198.991 129.858,212.448 129.897 M164.713 147.317 C 170.234 147.601,169.721 146.153,169.978 162.192 C 170.404 188.734,170.611 187.095,166.879 186.713 C 164.909 186.512,152.045 185.056,149.416 184.737 C 146.931 184.436,146.909 184.369,146.680 176.246 C 146.164 157.911,146.261 147.745,146.955 147.229 C 147.606 146.745,154.259 146.778,164.713 147.317 M186.886 148.582 C 187.687 149.307,187.815 155.750,187.042 156.392 C 186.463 156.872,179.089 156.498,178.341 155.951 C 177.560 155.380,177.646 148.736,178.442 148.125 C 179.307 147.462,186.052 147.827,186.886 148.582 M201.202 148.716 C 203.474 148.719,203.847 149.366,203.841 153.285 C 203.835 157.730,204.035 157.548,199.292 157.426 C 193.642 157.282,193.770 157.386,193.659 152.885 C 193.545 148.299,193.582 148.253,197.276 148.525 C 198.686 148.629,200.453 148.715,201.202 148.716 M216.066 149.359 C 220.412 149.359,220.513 149.468,220.513 154.144 C 220.513 159.049,220.782 158.876,213.963 158.351 C 209.569 158.013,209.614 158.062,209.620 153.545 C 209.626 149.370,209.893 148.880,211.979 149.212 C 212.486 149.293,214.325 149.359,216.066 149.359 M233.486 149.992 C 238.266 150.362,238.141 150.228,238.141 155.006 C 238.141 158.882,237.864 159.628,236.435 159.603 C 233.202 159.548,227.450 158.958,227.070 158.643 C 226.707 158.341,226.603 157.375,226.603 154.304 C 226.603 149.161,226.179 149.426,233.486 149.992 M164.125 151.186 C 163.556 151.419,161.074 153.288,159.731 154.495 C 159.178 154.992,158.168 155.700,157.488 156.068 C 156.807 156.436,156.002 156.913,155.699 157.127 C 155.236 157.454,154.980 157.359,154.096 156.531 C 149.887 152.586,147.414 155.190,151.146 159.639 C 154.708 163.885,154.953 163.876,160.417 159.272 C 161.474 158.381,163.205 157.091,164.263 156.407 C 166.882 154.711,167.308 154.291,167.308 153.401 C 167.308 151.939,165.448 150.645,164.125 151.186 M186.685 164.622 C 187.774 165.040,188.357 170.835,187.475 172.482 C 187.071 173.237,180.930 173.073,178.926 172.254 L 177.885 171.828 177.885 168.152 C 177.885 165.524,177.999 164.424,178.285 164.291 C 178.789 164.058,185.950 164.340,186.685 164.622 M202.783 165.238 C 204.018 165.499,204.595 172.465,203.475 173.586 C 202.800 174.260,194.776 173.897,194.037 173.158 C 193.138 172.259,193.552 165.299,194.517 165.072 C 195.357 164.874,201.660 165.001,202.783 165.238 M216.007 166.070 C 220.750 166.538,220.513 166.287,220.513 170.833 C 220.513 175.733,220.769 175.529,215.178 175.077 C 209.527 174.620,209.615 174.696,209.615 170.282 C 209.615 165.250,209.365 165.416,216.007 166.070 M237.142 167.715 C 238.618 168.421,238.575 176.418,237.094 176.757 C 235.931 177.023,227.649 176.110,227.101 175.656 C 226.567 175.212,226.338 167.693,226.843 167.161 C 227.211 166.774,236.183 167.256,237.142 167.715 M149.618 178.808 C 148.733 179.092,148.356 181.304,149.016 182.347 C 149.402 182.956,166.335 184.934,167.463 184.502 C 167.992 184.298,168.155 181.590,167.682 180.845 C 167.363 180.343,150.694 178.463,149.618 178.808 M184.740 180.120 C 187.620 180.592,187.821 180.896,187.821 184.786 C 187.821 189.100,187.946 189.003,182.923 188.557 C 177.988 188.118,177.885 188.023,177.885 183.918 C 177.885 179.559,178.667 179.126,184.740 180.120 M202.344 181.908 C 203.895 182.170,204.167 182.836,204.167 186.378 C 204.167 191.022,204.075 191.086,198.368 190.365 C 193.533 189.754,193.508 189.725,193.656 184.944 C 193.778 180.996,194.806 180.637,202.344 181.908 M219.810 183.300 C 221.126 184.005,221.042 191.522,219.714 191.855 C 218.581 192.139,210.565 191.462,210.149 191.047 C 209.616 190.516,209.451 184.240,209.944 183.317 C 210.363 182.535,218.354 182.521,219.810 183.300 M233.777 184.414 C 238.188 184.931,238.141 184.876,238.141 189.580 C 238.141 194.395,238.088 194.424,231.250 193.433 C 229.487 193.178,227.947 192.964,227.827 192.959 C 226.649 192.904,225.919 185.427,226.987 184.359 C 227.469 183.877,229.323 183.892,233.777 184.414 " stroke="none" fill="#faf7f5" fill-rule="evenodd"></path><path id="path3" d="M219.388 100.325 C 219.281 100.499,218.697 100.641,218.090 100.641 C 217.323 100.641,216.987 100.788,216.987 101.122 C 216.987 101.435,216.673 101.603,216.086 101.603 C 215.590 101.603,214.875 101.891,214.497 102.244 C 214.118 102.596,213.720 102.885,213.612 102.885 C 213.287 102.885,212.500 103.776,212.500 104.144 C 212.500 104.333,212.356 104.487,212.179 104.487 C 212.003 104.487,211.859 104.776,211.859 105.128 C 211.859 105.481,211.749 105.769,211.616 105.769 C 211.482 105.769,211.183 106.073,210.951 106.444 C 210.719 106.815,210.684 107.023,210.874 106.906 C 211.405 106.577,211.281 107.095,210.732 107.497 C 210.270 107.835,209.987 108.916,209.800 111.058 C 209.754 111.587,209.694 112.206,209.666 112.434 C 209.627 112.755,208.470 112.838,204.504 112.805 C 201.693 112.781,199.278 112.820,199.136 112.891 C 198.994 112.963,197.111 113.008,194.952 112.992 C 192.792 112.977,191.026 113.084,191.026 113.232 C 191.026 113.379,190.881 113.410,190.705 113.301 C 190.529 113.192,190.385 113.256,190.385 113.443 C 190.385 113.674,193.587 113.782,200.475 113.782 L 210.565 113.782 210.776 114.663 C 210.892 115.148,211.399 116.466,211.904 117.592 C 212.408 118.719,212.821 119.764,212.821 119.916 C 212.821 120.068,207.295 120.192,200.541 120.192 L 188.261 120.192 187.434 119.311 C 185.627 117.383,184.179 110.577,185.577 110.577 C 185.753 110.577,185.897 110.273,185.897 109.902 C 185.897 109.435,186.045 109.283,186.374 109.409 C 186.650 109.515,186.819 109.428,186.775 109.203 C 186.726 108.952,187.240 108.779,188.221 108.716 C 189.137 108.658,189.744 108.753,189.744 108.957 C 189.744 109.143,189.970 109.295,190.247 109.295 C 190.823 109.295,191.667 110.043,191.667 110.554 C 191.667 110.743,191.851 110.897,192.077 110.897 C 192.302 110.897,192.695 111.186,192.949 111.538 C 193.663 112.530,198.845 112.499,199.380 111.500 C 199.635 111.022,199.639 110.885,199.391 111.038 C 199.170 111.175,199.038 110.950,199.038 110.436 C 199.038 109.920,198.860 109.615,198.558 109.615 C 198.293 109.615,198.077 109.399,198.077 109.135 C 198.077 108.870,197.933 108.654,197.756 108.654 C 197.580 108.654,197.436 108.365,197.436 108.013 C 197.436 107.660,197.292 107.372,197.115 107.372 C 196.939 107.372,196.795 107.153,196.795 106.885 C 196.795 106.618,196.290 105.909,195.673 105.310 C 195.056 104.710,194.551 104.064,194.551 103.873 C 194.551 103.682,194.263 103.526,193.910 103.526 C 193.558 103.526,193.269 103.329,193.269 103.089 C 193.269 102.797,193.005 102.703,192.468 102.806 C 192.000 102.896,191.667 102.810,191.667 102.601 C 191.667 102.360,190.523 102.244,188.141 102.244 C 186.004 102.244,184.615 102.370,184.615 102.564 C 184.615 102.740,184.408 102.885,184.155 102.885 C 183.368 102.885,179.487 106.906,179.487 107.721 C 179.487 108.123,179.163 108.809,178.766 109.246 C 178.369 109.682,178.225 109.935,178.446 109.808 C 178.729 109.645,178.846 109.864,178.846 110.558 C 178.846 111.097,178.702 111.538,178.526 111.538 C 178.349 111.538,178.205 111.899,178.205 112.340 C 178.205 112.780,178.356 113.141,178.540 113.141 C 178.724 113.141,178.845 113.321,178.810 113.542 C 178.774 113.762,178.835 114.159,178.944 114.423 C 179.053 114.688,179.494 115.841,179.923 116.987 C 180.353 118.133,180.806 119.323,180.931 119.631 C 181.141 120.150,180.813 120.192,176.583 120.192 C 174.067 120.192,172.073 120.257,172.152 120.336 C 172.231 120.415,174.235 120.503,176.605 120.532 C 181.212 120.587,182.222 120.798,182.964 121.856 C 183.223 122.226,184.041 123.212,184.783 124.047 C 185.590 124.955,186.220 126.032,186.350 126.725 C 186.709 128.636,188.846 129.364,191.208 128.377 C 193.899 127.252,193.685 123.109,190.865 121.764 C 188.814 120.786,189.842 120.674,201.641 120.589 L 213.378 120.505 214.680 122.192 C 215.396 123.119,216.424 124.302,216.965 124.820 C 217.506 125.337,217.949 126.011,217.949 126.317 C 217.949 127.350,219.480 128.778,220.832 129.006 C 225.525 129.799,227.321 123.960,223.055 121.784 C 220.825 120.646,221.715 120.513,231.527 120.513 L 240.900 120.513 242.331 121.420 C 246.414 124.010,246.150 121.188,246.152 162.220 C 246.154 202.190,246.306 199.248,244.148 200.967 C 243.266 201.669,242.694 202.244,242.876 202.244 C 243.058 202.244,243.906 201.611,244.761 200.837 L 246.314 199.431 246.413 163.417 C 246.523 123.612,246.578 124.824,244.563 122.769 C 242.044 120.198,242.012 120.192,230.659 120.192 L 220.587 120.192 219.440 118.922 C 218.134 117.477,216.667 114.763,216.667 113.793 C 216.667 113.165,216.872 113.139,222.356 113.072 L 228.045 113.004 222.515 112.832 C 219.473 112.738,216.985 112.552,216.986 112.420 C 216.987 112.288,216.980 112.143,216.971 112.099 C 216.690 110.701,216.791 109.295,217.174 109.295 C 217.424 109.295,217.628 109.151,217.628 108.974 C 217.628 108.798,217.853 108.654,218.128 108.654 C 218.403 108.654,218.538 108.510,218.429 108.333 C 218.321 108.157,218.448 108.013,218.712 108.013 C 218.977 108.013,219.296 107.846,219.422 107.643 C 219.563 107.414,219.510 107.360,219.280 107.501 C 219.077 107.627,218.910 107.577,218.910 107.391 C 218.910 107.202,219.551 107.051,220.353 107.051 C 221.165 107.051,221.795 107.201,221.795 107.395 C 221.795 107.764,222.582 108.654,222.908 108.654 C 223.390 108.654,224.679 110.291,224.679 110.902 C 224.679 111.273,224.824 111.487,225.000 111.378 C 225.176 111.269,225.321 111.341,225.321 111.538 C 225.321 111.736,225.471 111.804,225.655 111.690 C 225.839 111.576,226.180 111.641,226.413 111.834 C 227.109 112.413,231.371 112.432,231.741 111.859 C 231.998 111.460,232.099 111.453,232.332 111.813 C 232.530 112.121,232.612 111.997,232.612 111.387 C 232.612 110.913,232.414 110.450,232.171 110.357 C 231.890 110.249,231.731 109.679,231.731 108.780 C 231.731 108.005,231.587 107.372,231.410 107.372 C 231.234 107.372,231.090 107.155,231.090 106.891 C 231.090 106.627,230.946 106.410,230.769 106.410 C 230.593 106.410,230.449 106.187,230.449 105.915 C 230.449 105.388,229.067 103.846,228.594 103.846 C 228.440 103.846,228.120 103.486,227.885 103.045 C 227.620 102.551,227.176 102.244,226.728 102.244 C 226.327 102.244,225.910 102.099,225.801 101.923 C 225.692 101.747,225.251 101.603,224.821 101.603 C 224.339 101.603,224.038 101.418,224.038 101.122 C 224.038 100.768,223.670 100.641,222.650 100.641 C 221.886 100.641,221.161 100.541,221.039 100.419 C 220.669 100.049,219.596 99.988,219.388 100.325 M154.981 105.369 C 154.897 105.589,154.636 105.769,154.401 105.769 C 153.771 105.769,152.249 106.528,152.246 106.843 C 152.245 106.992,151.811 107.519,151.282 108.013 C 150.753 108.507,150.321 109.022,150.321 109.158 C 150.321 109.294,150.086 109.664,149.799 109.981 C 149.462 110.353,149.288 111.086,149.307 112.051 C 149.324 112.872,149.199 113.802,149.030 114.118 C 148.829 114.494,148.836 114.730,149.052 114.802 C 149.446 114.933,150.714 119.815,150.460 120.226 C 150.363 120.384,148.939 120.513,147.296 120.513 C 143.257 120.513,140.334 122.020,140.399 124.069 C 140.407 124.316,140.704 123.967,141.060 123.293 C 142.054 121.409,143.607 120.849,147.864 120.840 L 151.337 120.833 152.351 122.015 C 152.909 122.665,153.890 123.783,154.531 124.499 C 155.173 125.215,155.916 126.326,156.183 126.968 C 157.028 128.999,159.859 129.379,161.223 127.645 C 162.507 126.013,161.850 123.702,159.749 122.463 C 158.493 121.721,158.323 120.942,159.375 120.739 C 159.853 120.647,159.714 120.585,158.966 120.556 C 156.569 120.464,153.512 116.145,154.770 114.629 C 154.956 114.404,155.143 113.771,155.185 113.222 C 155.227 112.673,155.375 112.294,155.515 112.381 C 155.655 112.467,155.781 112.277,155.795 111.958 C 155.811 111.585,155.880 111.529,155.989 111.801 C 156.112 112.110,156.284 112.044,156.623 111.561 C 157.093 110.890,158.654 110.626,158.654 111.218 C 158.654 111.394,158.870 111.538,159.135 111.538 C 159.399 111.538,159.618 111.719,159.620 111.939 C 159.624 112.254,159.679 112.255,159.875 111.946 C 160.059 111.657,160.246 111.721,160.582 112.187 C 160.984 112.744,161.418 112.821,164.173 112.821 L 167.308 112.821 167.308 111.859 C 167.308 111.330,167.163 110.897,166.987 110.897 C 166.811 110.897,166.667 110.673,166.667 110.398 C 166.667 110.098,166.517 109.991,166.292 110.130 C 166.049 110.280,165.981 110.194,166.099 109.885 C 166.204 109.612,166.018 109.244,165.661 109.021 C 165.319 108.808,165.125 108.493,165.231 108.323 C 165.336 108.152,165.254 108.013,165.049 108.013 C 164.844 108.013,164.392 107.652,164.045 107.212 C 163.699 106.771,163.137 106.410,162.797 106.410 C 162.457 106.410,162.179 106.266,162.179 106.090 C 162.179 105.913,161.747 105.769,161.218 105.769 C 160.689 105.769,160.256 105.636,160.256 105.473 C 160.256 104.993,155.162 104.892,154.981 105.369 M146.955 147.229 C 146.261 147.745,146.164 157.911,146.680 176.246 C 146.909 184.369,146.931 184.436,149.416 184.737 C 152.045 185.056,164.909 186.512,166.879 186.713 C 170.611 187.095,170.404 188.734,169.978 162.192 C 169.721 146.153,170.234 147.601,164.713 147.317 C 154.259 146.778,147.606 146.745,146.955 147.229 M194.139 148.772 C 193.639 149.152,193.579 149.664,193.659 152.885 C 193.770 157.386,193.642 157.282,199.292 157.426 C 204.035 157.548,203.835 157.730,203.841 153.285 C 203.847 149.366,203.474 148.719,201.202 148.716 C 200.453 148.715,198.686 148.629,197.276 148.525 C 195.372 148.385,194.564 148.449,194.139 148.772 M166.747 151.972 C 167.999 153.453,167.529 154.292,164.263 156.407 C 163.205 157.091,161.474 158.381,160.417 159.272 C 154.953 163.876,154.708 163.885,151.146 159.639 C 147.414 155.190,149.887 152.586,154.096 156.531 C 154.980 157.359,155.236 157.454,155.699 157.127 C 156.002 156.913,156.807 156.436,157.488 156.068 C 158.168 155.700,159.178 154.992,159.731 154.495 C 163.673 150.952,165.368 150.343,166.747 151.972 M140.474 181.090 C 140.413 190.532,141.219 191.755,147.756 192.134 C 150.292 192.282,150.050 192.206,146.154 191.630 C 141.356 190.921,140.922 190.110,140.690 181.410 L 140.514 174.840 140.474 181.090 M161.677 179.823 C 168.016 180.504,167.936 180.466,167.944 182.782 C 167.950 184.742,167.857 184.772,163.216 184.327 C 149.084 182.972,148.728 182.885,148.728 180.769 C 148.728 178.345,148.242 178.380,161.677 179.823 M163.141 194.064 C 164.816 194.310,167.628 194.680,169.391 194.885 C 171.154 195.091,174.543 195.532,176.923 195.865 C 179.303 196.198,181.755 196.454,182.372 196.434 C 183.897 196.384,178.643 195.646,166.506 194.206 C 162.025 193.674,159.873 193.583,163.141 194.064 " stroke="none" fill="#6444d2" fill-rule="evenodd"></path><path id="path4" d="M148.016 129.744 C 146.041 129.872,145.827 130.517,145.878 136.218 C 145.946 143.909,144.954 143.243,156.891 143.610 C 178.381 144.272,188.329 144.568,194.071 144.720 C 197.420 144.809,204.704 145.038,210.256 145.229 C 235.809 146.108,237.249 146.103,237.862 145.135 C 238.481 144.161,238.188 131.539,237.528 130.725 L 236.916 129.968 212.448 129.897 C 198.991 129.858,179.327 129.786,168.750 129.737 C 158.173 129.688,148.843 129.691,148.016 129.744 M192.147 131.099 C 192.936 131.159,223.282 131.153,230.131 131.092 C 235.860 131.040,236.696 131.241,237.043 132.753 C 237.511 134.795,237.234 143.673,236.685 144.220 C 236.117 144.786,230.289 144.787,209.295 144.226 C 202.684 144.049,196.554 143.893,195.673 143.877 C 194.792 143.862,192.556 143.727,190.705 143.577 C 185.416 143.148,179.750 142.974,164.583 142.774 C 145.708 142.526,147.010 142.926,146.885 137.340 C 146.769 132.116,146.879 131.581,148.163 131.159 C 148.997 130.885,188.645 130.831,192.147 131.099 M178.442 148.125 C 177.646 148.736,177.560 155.380,178.341 155.951 C 179.089 156.498,186.463 156.872,187.042 156.392 C 187.815 155.750,187.687 149.307,186.886 148.582 C 186.052 147.827,179.307 147.462,178.442 148.125 M184.075 149.205 C 186.478 149.505,186.664 149.787,186.388 152.726 C 186.126 155.529,185.878 155.771,183.274 155.766 C 179.125 155.757,178.469 155.090,178.644 151.060 C 178.716 149.405,180.192 148.427,181.921 148.887 C 182.114 148.938,183.083 149.081,184.075 149.205 M210.577 149.260 C 209.734 149.602,209.625 150.089,209.620 153.545 C 209.614 158.062,209.569 158.013,213.963 158.351 C 220.782 158.876,220.513 159.049,220.513 154.144 C 220.513 149.468,220.412 149.359,216.066 149.359 C 214.325 149.359,212.486 149.293,211.979 149.212 C 211.472 149.131,210.841 149.153,210.577 149.260 M227.163 150.026 C 226.397 150.472,226.316 158.017,227.070 158.643 C 227.450 158.958,233.202 159.548,236.435 159.603 C 238.060 159.631,239.087 152.699,237.733 150.847 C 237.129 150.021,228.344 149.338,227.163 150.026 M218.954 151.255 C 219.543 151.983,219.601 155.233,219.056 156.971 C 218.672 158.196,211.024 157.099,210.747 155.779 C 210.491 154.559,210.789 150.586,211.154 150.359 C 212.106 149.766,218.328 150.481,218.954 151.255 M236.802 151.407 C 237.052 151.562,237.179 152.754,237.179 154.952 L 237.179 158.263 235.978 158.414 C 234.357 158.618,228.147 158.043,227.668 157.645 C 227.052 157.134,227.172 152.040,227.815 151.397 C 228.356 150.856,235.924 150.864,236.802 151.407 M178.285 164.291 C 177.999 164.424,177.885 165.524,177.885 168.152 L 177.885 171.828 178.926 172.254 C 180.930 173.073,187.071 173.237,187.475 172.482 C 188.357 170.835,187.774 165.040,186.685 164.622 C 185.950 164.340,178.789 164.058,178.285 164.291 M194.517 165.072 C 193.552 165.299,193.138 172.259,194.037 173.158 C 194.776 173.897,202.800 174.260,203.475 173.586 C 204.595 172.465,204.018 165.499,202.783 165.238 C 201.660 165.001,195.357 164.874,194.517 165.072 M184.156 165.411 C 185.202 165.601,186.173 165.868,186.313 166.003 C 186.649 166.325,186.834 170.996,186.531 171.487 C 186.302 171.858,182.151 171.777,180.609 171.371 C 180.256 171.279,179.716 171.192,179.407 171.178 C 178.698 171.147,178.546 165.559,179.247 165.276 C 179.951 164.992,182.196 165.054,184.156 165.411 M209.947 166.325 C 209.313 167.510,209.528 173.540,210.227 174.172 C 211.075 174.940,219.257 175.643,220.015 175.014 C 220.666 174.474,220.751 167.253,220.112 166.751 C 219.731 166.451,213.438 165.705,211.291 165.705 C 210.618 165.705,210.168 165.913,209.947 166.325 M202.069 166.784 C 203.055 167.770,203.477 170.664,202.829 172.003 L 202.387 172.917 199.190 172.917 C 194.131 172.917,194.551 173.239,194.551 169.354 L 194.551 166.026 197.931 166.026 C 201.058 166.026,201.368 166.082,202.069 166.784 M218.349 167.519 C 220.029 168.050,220.019 168.037,219.522 168.966 C 219.268 169.439,219.268 169.717,219.522 169.970 C 220.280 170.728,219.950 173.686,219.084 173.903 C 213.513 175.302,209.193 172.541,210.597 168.479 C 211.242 166.614,214.289 166.237,218.349 167.519 M226.843 167.161 C 226.338 167.693,226.567 175.212,227.101 175.656 C 227.649 176.110,235.931 177.023,237.094 176.757 C 238.575 176.418,238.618 168.421,237.142 167.715 C 236.183 167.256,227.211 166.774,226.843 167.161 M233.654 168.379 L 237.019 168.750 237.019 172.115 L 237.019 175.481 233.354 175.406 C 227.512 175.286,226.417 174.277,227.609 170.108 C 228.300 167.688,228.044 167.762,233.654 168.379 M178.216 180.428 C 177.622 181.539,177.799 186.683,178.461 187.500 C 179.205 188.418,186.426 189.220,187.315 188.482 C 188.118 187.816,188.044 181.712,187.224 180.970 C 185.896 179.768,178.798 179.341,178.216 180.428 M186.197 181.872 C 186.802 182.420,186.873 182.781,186.791 184.917 L 186.699 187.340 185.737 187.449 C 184.212 187.623,180.233 187.167,179.676 186.754 C 179.015 186.264,178.667 182.172,179.229 181.495 C 179.845 180.753,185.287 181.047,186.197 181.872 M194.438 181.566 C 193.738 181.914,193.256 186.756,193.732 188.661 C 193.998 189.727,198.100 190.705,202.302 190.705 C 205.066 190.705,205.105 182.374,202.344 181.908 C 199.463 181.422,195.106 181.234,194.438 181.566 M201.679 182.728 C 203.147 183.105,203.305 183.611,202.971 186.856 L 202.724 189.257 201.233 189.529 C 200.014 189.752,199.467 189.679,198.228 189.131 C 197.395 188.763,196.400 188.462,196.017 188.462 C 194.817 188.462,194.551 187.848,194.551 185.070 L 194.551 182.448 197.516 182.434 C 199.147 182.426,201.020 182.559,201.679 182.728 M209.944 183.317 C 209.451 184.240,209.616 190.516,210.149 191.047 C 210.565 191.462,218.581 192.139,219.714 191.855 C 221.042 191.522,221.126 184.005,219.810 183.300 C 218.354 182.521,210.363 182.535,209.944 183.317 M219.156 184.428 C 219.921 185.147,220.050 189.814,219.322 190.467 C 218.725 191.003,213.583 190.831,211.503 190.205 C 210.871 190.014,210.413 184.725,210.970 184.049 C 211.402 183.526,218.548 183.856,219.156 184.428 M226.987 184.359 C 225.919 185.427,226.649 192.904,227.827 192.959 C 227.947 192.964,229.487 193.178,231.250 193.433 C 235.179 194.003,237.250 194.032,237.756 193.526 C 238.323 192.959,238.279 186.208,237.703 185.421 C 236.984 184.438,227.817 183.529,226.987 184.359 M236.251 185.714 C 237.371 186.184,237.723 190.615,236.784 192.429 C 236.443 193.086,234.020 193.014,230.803 192.251 C 227.388 191.441,227.564 191.660,227.564 188.220 L 227.564 185.171 231.651 185.335 C 233.898 185.425,235.968 185.596,236.251 185.714 " stroke="none" fill="#ec8c5f" fill-rule="evenodd"></path></g></svg>