<?xml version="1.0" standalone="no"?>
<!DOCTYPE svg PUBLIC "-//W3C//DTD SVG 20010904//EN"
 "http://www.w3.org/TR/2001/REC-SVG-20010904/DTD/svg10.dtd">
<svg version="1.0" xmlns="http://www.w3.org/2000/svg"
 width="500.000000pt" height="500.000000pt" viewBox="100 90 300 320"
 preserveAspectRatio="xMidYMid meet">

<g transform="translate(0.000000,500.000000) scale(0.100000,-0.100000)"
fill="#ffffff" stroke="none">
<path d="M1398 4003 l-107 -4 -3 -57 -3 -57 -52 -3 -52 -3 -3 -52 -3 -52 -56
-3 -56 -3 -6 -487 c-9 -622 -9 -1403 0 -1739 l6 -263 54 0 c43 0 53 -3 55 -17
1 -10 2 -25 4 -33 1 -8 2 -25 3 -37 1 -19 7 -22 54 -25 l52 -3 3 -58 3 -57
1239 0 1239 0 3 58 3 57 53 3 c40 2 52 7 54 20 2 26 5 55 7 75 1 14 11 17 54
17 l54 0 7 193 c8 240 8 1857 -1 2109 l-6 187 -56 3 -56 3 3 52 3 52 -58 3
-58 3 -3 56 -3 56 -197 6 c-209 6 -1992 6 -2174 0z m922 -628 l0 -55 39 0 c65
0 71 -6 71 -66 l0 -54 45 0 45 0 0 -180 0 -180 -155 0 c-141 0 -155 2 -156 18
0 9 -1 49 -2 87 l-2 70 -52 3 -53 3 0 50 0 49 -134 0 -135 0 -6 -55 -7 -55
-53 0 -52 0 -6 -137 c-4 -75 -7 -279 -7 -455 l0 -318 55 0 55 0 0 -50 0 -50
144 0 145 0 3 48 3 47 53 3 52 3 0 60 0 59 155 0 155 0 0 -140 0 -140 -50 0
c-38 0 -50 -4 -50 -15 0 -11 -12 -15 -50 -15 l-50 0 0 -45 0 -45 -309 0 -310
0 -7 45 -6 45 -44 0 -43 0 -3 43 -3 42 -47 3 -48 3 0 44 0 44 -56 3 -55 3 -5
475 c-3 261 -2 514 2 563 l6 87 49 0 49 0 0 55 0 55 50 0 49 0 7 50 7 50 358
0 359 0 0 -55z m1140 -205 l0 -50 49 0 50 0 3 -47 3 -48 41 -3 c50 -4 51 -6
53 -163 l2 -109 -141 0 -140 0 0 50 0 50 -49 0 -50 0 -3 48 -3 47 -127 3 -128
3 0 -50 c0 -53 -9 -61 -72 -61 l-28 0 0 -95 0 -95 50 0 50 0 0 -45 0 -45 220
0 220 0 0 -50 0 -50 50 0 50 0 0 -50 0 -50 55 0 55 0 0 -200 0 -200 -55 0 -55
0 0 -55 0 -55 -50 0 -50 0 0 -49 c0 -46 -1 -49 -31 -55 -17 -3 -177 -6 -355
-6 l-324 0 0 49 c0 54 -6 60 -63 56 l-37 -2 0 109 0 108 135 0 135 0 0 -50 0
-50 50 0 50 0 0 -50 0 -50 130 0 130 0 0 50 0 50 50 0 50 0 0 110 0 110 -50 0
-50 0 0 45 0 45 -200 0 -199 0 -3 58 -3 57 -57 3 -58 3 0 59 0 60 -55 0 -55 0
0 255 0 255 50 0 50 0 0 50 0 50 49 0 c53 0 61 10 61 73 l0 27 300 0 300 0 0
-50z"/>
</g>
</svg>
