<?xml version="1.0" encoding="UTF-8"?>
<svg version="1.1" xmlns="http://www.w3.org/2000/svg" viewBox="13 12 486 486" width="100%" height="100%" preserveAspectRatio="xMidYMid meet">
<path d="M0 0 C4.45432916 2.05924987 8.62620594 4.59123712 12.82666016 7.11865234 C14.97855748 8.3941454 17.13091722 9.66885856 19.28369141 10.94287109 C20.94779053 11.9316626 20.94779053 11.9316626 22.64550781 12.94042969 C28.07561689 16.14938094 33.5453923 19.28869744 39.01416016 22.43115234 C47.36269325 27.23871095 55.69659851 32.07021298 64.01416016 36.93115234 C76.65159469 44.31530127 89.33091314 51.62605369 102.01416016 58.93115234 C115.67661964 66.80024251 129.32954656 74.68404972 142.94042969 82.64208984 C148.28889687 85.76667872 153.64543179 88.87666202 159.01416016 91.96630859 C159.60003906 92.30358978 160.18591797 92.64087097 160.78955078 92.9883728 C163.62099496 94.61795241 166.45353425 96.24558463 169.28759766 97.87060547 C185.70271655 107.30826514 185.70271655 107.30826514 187.01416016 109.93115234 C187.12459013 112.8680952 187.1735042 115.78206254 187.17910767 118.71975708 C187.18475121 119.64122681 187.19039475 120.56269655 187.19620931 121.51208961 C187.21399694 124.61938249 187.22464989 127.72665958 187.23535156 130.83398438 C187.24656262 133.05459806 187.25819466 135.27520966 187.2702179 137.49581909 C187.30162817 143.54615353 187.32671284 149.59649926 187.35041475 155.64686823 C187.37081573 160.70062833 187.3943661 165.75437166 187.41795194 170.80811775 C187.47683391 183.42717144 187.52979359 196.04624142 187.57992105 208.66533194 C187.6207946 218.91753885 187.66705569 229.16970981 187.71728516 239.421875 C187.77566094 251.33708796 187.83036896 263.25230937 187.87988603 275.16756332 C187.90609252 281.47036596 187.9337495 287.77315299 187.96525955 294.07593155 C187.99473852 300.0167708 188.0189131 305.95760943 188.03915977 311.89848709 C188.04739914 314.06872834 188.05742216 316.23896375 188.06944847 318.40918732 C188.12153368 327.9834167 188.15566906 337.56233265 187.74642944 347.12985229 C187.69750738 348.36887739 187.64858532 349.60790249 187.59818077 350.8844738 C186.92531037 354.39465782 186.12629291 355.41789845 183.26025391 357.46630859 C181.53002528 358.32613638 179.77897382 359.14475063 178.01416016 359.93115234 C175.97525696 361.10189049 173.94584562 362.28925716 171.92431641 363.48974609 C170.23593124 364.4491345 168.54747953 365.40841469 166.85656738 366.36334229 C164.39212942 367.7552824 161.93208963 369.1549185 159.47171021 370.55401611 C158.19788897 371.27829666 156.92386051 372.00221286 155.64962769 372.72576904 C149.3394228 376.30981108 143.04907255 379.9279507 136.76416016 383.55615234 C135.69560791 384.17288818 134.62705566 384.78962402 133.52612305 385.42504883 C125.35272382 390.14760898 117.19824959 394.90219342 109.04785156 399.66430664 C96.30409876 407.1056473 83.51092965 414.46135128 70.72314453 421.82666016 C60.1278044 427.93015526 49.53280103 434.03369969 38.97509766 440.20214844 C37.0153841 441.34649964 35.05446223 442.48878431 33.09228516 443.62890625 C28.2911924 446.42025776 23.50352783 449.23029943 18.74578857 452.09481812 C16.3754706 453.51867084 13.99741519 454.92927207 11.61816406 456.33813477 C9.92667833 457.34629083 8.2456587 458.37194142 6.56494141 459.39794922 C5.53498047 460.00574219 4.50501953 460.61353516 3.44384766 461.23974609 C2.08622314 462.0565686 2.08622314 462.0565686 0.70117188 462.88989258 C-2.70970029 464.21165978 -4.48739558 463.91966956 -7.98583984 462.93115234 C-10.64111328 461.67871094 -10.64111328 461.67871094 -13.34521484 460.07958984 C-14.36502441 459.48331787 -15.38483398 458.8870459 -16.43554688 458.27270508 C-17.52464355 457.62374268 -18.61374023 456.97478027 -19.73583984 456.30615234 C-20.89135263 455.62687018 -22.04745122 454.94858361 -23.20410156 454.27124023 C-25.60658875 452.8633364 -28.00650226 451.45118543 -30.40478516 450.03613281 C-35.94856198 446.77058196 -41.53242073 443.57451431 -47.11083984 440.36865234 C-56.40923488 435.00933481 -65.6852155 429.61256752 -74.95166016 424.19824219 C-86.60243169 417.39527611 -98.29487729 410.66473048 -109.98583984 403.93115234 C-123.64915252 396.06157077 -137.30441225 388.1797207 -150.91430664 380.21801758 C-156.24761985 377.1009972 -161.59142024 374.00333565 -166.95068359 370.93115234 C-167.825952 370.42878052 -167.825952 370.42878052 -168.71890259 369.91625977 C-171.53430686 368.30033242 -174.35123822 366.68722711 -177.17138672 365.07958984 C-178.19167969 364.49435547 -179.21197266 363.90912109 -180.26318359 363.30615234 C-181.15255615 362.79826172 -182.04192871 362.29037109 -182.95825195 361.76708984 C-183.95735596 361.16123047 -184.95645996 360.55537109 -185.98583984 359.93115234 C-186.72083122 359.56007254 -187.45582259 359.18899274 -188.21308643 358.8066681 C-194.48952712 355.30347662 -194.48952712 355.30347662 -195.80906618 351.654899 C-196.10418452 348.89528239 -196.12440898 346.2575546 -196.04301453 343.48332214 C-196.04911198 342.46892506 -196.05520944 341.45452797 -196.06149167 340.40939158 C-196.06966321 338.29023848 -196.05839716 336.1709276 -196.02839065 334.0519712 C-195.98864586 331.13695469 -196.00106803 328.22869554 -196.03837013 325.31377602 C-196.10487055 319.5742059 -196.09074622 313.83626066 -196.07104492 308.09643555 C-196.06743604 305.92222148 -196.06423414 303.74800672 -196.06140137 301.5737915 C-196.05215755 295.75066818 -196.03585926 289.92758815 -196.01703095 284.10448861 C-196.00530209 280.46049648 -195.99466454 276.81650255 -195.98428917 273.17250633 C-195.9512108 261.75059569 -195.91329946 250.3287149 -195.86892396 238.90684253 C-195.81793923 225.75246137 -195.78384627 212.59817343 -195.76374322 199.44370967 C-195.74709242 189.23853161 -195.71526907 179.0334709 -195.67189711 168.8283717 C-195.64640249 162.74534139 -195.62746528 156.66245709 -195.62452126 150.5793705 C-195.62137936 144.87859774 -195.59949484 139.17820795 -195.56296539 133.47755432 C-195.5528257 131.38452523 -195.54953145 129.2914504 -195.55349541 127.1984005 C-195.55786149 124.3476273 -195.53784718 121.49804605 -195.5115509 118.64741516 C-195.5186292 117.81485571 -195.5257075 116.98229625 -195.53300029 116.12450773 C-195.47594401 112.51312367 -195.34166225 110.39368021 -193.10474682 107.48594952 C-190.74265747 105.75271163 -188.37152255 104.23259921 -185.82177734 102.78662109 C-184.79568359 102.20009766 -183.76958984 101.61357422 -182.71240234 101.00927734 C-181.60638672 100.38537109 -180.50037109 99.76146484 -179.36083984 99.11865234 C-178.19378454 98.45396967 -177.02712462 97.78859235 -175.86083984 97.12255859 C-173.43885894 95.74014431 -171.0152083 94.36072719 -168.59033203 92.98339844 C-163.03944283 89.82721095 -157.51401083 86.62690225 -151.98583984 83.43115234 C-149.8192926 82.18094536 -147.65262554 80.93094601 -145.48583984 79.68115234 C-144.41333984 79.06240234 -143.34083984 78.44365234 -142.23583984 77.80615234 C-132.48583984 72.18115234 -132.48583984 72.18115234 -129.23535156 70.3059082 C-127.07026914 69.05679716 -124.90523002 67.80761105 -122.74023438 66.55834961 C-117.29968279 63.41912925 -111.85836769 60.28124672 -106.41552734 57.14599609 C-95.92351891 51.10060076 -85.44102308 45.04005016 -74.98583984 38.93115234 C-64.55686951 32.83757056 -54.10111709 26.7914537 -43.63427734 20.76318359 C-39.61646164 18.44907973 -35.60108559 16.13087052 -31.58920288 13.8065033 C-29.21097994 12.42865731 -26.83203264 11.05206449 -24.45306396 9.67550659 C-22.77987193 8.70664901 -21.10769534 7.73603843 -19.43554688 6.76538086 C-17.90583252 5.88064087 -17.90583252 5.88064087 -16.34521484 4.97802734 C-15.45286133 4.46079102 -14.56050781 3.94355469 -13.64111328 3.41064453 C-4.5686808 -1.64442542 -4.5686808 -1.64442542 0 0 Z " fill="#010000" transform="translate(259.98583984375,24.06884765625)"/>
<path d="M0 0 C0.33 0 0.66 0 1 0 C1.47102169 3.95658217 1.24185426 5.63721861 -1 9 C-3.70057296 11.9460796 -6.83992843 14.16387295 -10.0703125 16.4921875 C-13.87191388 19.46266955 -17.45734999 23.37204998 -19 28 C-19.30399283 32.25589957 -19.33486745 35.35176961 -17 39 C-15.35 38.67 -13.7 38.34 -12 38 C-11.01 35.03 -11.01 35.03 -10 32 C-9.67 32 -9.34 32 -9 32 C-8.92652344 33.57201172 -8.92652344 33.57201172 -8.8515625 35.17578125 C-8.77651857 36.55471354 -8.70097143 37.9336185 -8.625 39.3125 C-8.5940625 40.00279297 -8.563125 40.69308594 -8.53125 41.40429688 C-8.31875081 45.06990789 -8.08066139 46.87900792 -6 50 C-3.08559301 50.66721536 -3.08559301 50.66721536 0 50 C2.26877535 47.58119071 2.26877535 47.58119071 4 45 C4.66 45 5.32 45 6 45 C6.6727248 53.70057407 5.61280192 59.55361975 1 67 C0.34 66.67 -0.32 66.34 -1 66 C-1 63.69 -1 61.38 -1 59 C-5.86419565 61.04917178 -7.72417795 64.3840217 -10 69 C-10.88291612 71.67138724 -11.45593213 74.23019992 -12 77 C-11.34 77 -10.68 77 -10 77 C-8.47700477 74.06279492 -7.19899698 71.0831351 -6 68 C-5.34 68 -4.68 68 -4 68 C-3.93941406 68.62648438 -3.87882812 69.25296875 -3.81640625 69.8984375 C-3.69072266 71.12433594 -3.69072266 71.12433594 -3.5625 72.375 C-3.44068359 73.59316406 -3.44068359 73.59316406 -3.31640625 74.8359375 C-3.10909886 77.04272805 -3.10909886 77.04272805 -2 79 C2.72749748 78.71056138 6.41531085 77.94455633 10.3046875 74.98828125 C13.41905745 71.33571373 14.8805111 66.82099626 16.54296875 62.375 C17.99808112 59.00444481 19.48323876 56.65848178 22 54 C22.99 53.67 23.98 53.34 25 53 C24.67 53.680625 24.34 54.36125 24 55.0625 C22.78622189 58.62797319 22.67088753 61.24811789 23 65 C23.495 65.9075 23.99 66.815 24.5 67.75 C26.65630301 72.42198985 26.43128584 76.92409745 26 82 C25.67 82.66 25.34 83.32 25 84 C24.60872173 89.86917407 25.25504551 92.73883723 28 98 C28.1875 101.25 28.1875 101.25 28 104 C27.81685973 106.14925528 27.81685973 106.14925528 29.41015625 108.14453125 C31.32088858 111.57633796 31.86345054 114.86231308 32.4375 118.6875 C33.51986021 125.18911038 35.1640125 131.01131574 38 137 C38.26554688 135.87980469 38.53109375 134.75960937 38.8046875 133.60546875 C39.16114496 132.13273662 39.51793308 130.66008449 39.875 129.1875 C40.04902344 128.44951172 40.22304688 127.71152344 40.40234375 126.95117188 C41.24492511 123.50282963 42.01285575 120.98071638 44 118 C43.76493135 114.47397019 43.04808406 112.09424476 41.4375 108.9375 C39.97262606 105.94406196 39.71142428 104.27052479 40 101 C42.97 102.98 42.97 102.98 46 105 C45.95359375 104.20335937 45.9071875 103.40671875 45.859375 102.5859375 C45.49584133 91.91362764 45.49584133 91.91362764 50 87 C50.33 87 50.66 87 51 87 C51.12117187 87.59167969 51.24234375 88.18335938 51.3671875 88.79296875 C51.53476562 89.58316406 51.70234375 90.37335938 51.875 91.1875 C52.11863281 92.35345703 52.11863281 92.35345703 52.3671875 93.54296875 C52.94627806 96.04013798 52.94627806 96.04013798 54.03515625 98.453125 C55.85783108 103.26439621 55.81628854 107.95821783 55 113 C53.44964461 116.38546993 51.67281036 119.39469454 49.62890625 122.50390625 C47.5017128 125.7635624 46.87779061 128.3503722 46.71875 132.16015625 C46.66267578 133.3502832 46.66267578 133.3502832 46.60546875 134.56445312 C46.53499162 136.23371702 46.46467989 137.9029879 46.39453125 139.57226562 C46.35714844 140.36439453 46.31976563 141.15652344 46.28125 141.97265625 C46.25095703 142.69718994 46.22066406 143.42172363 46.18945312 144.16821289 C46 146 46 146 45 148 C45.66 148 46.32 148 47 148 C47.79323906 157.51886866 44.87626141 165.75102646 39 173.3125 C35.03342601 177.53244546 30.08630967 179.76050373 24.97265625 182.34375 C20.36611092 184.9103403 18.29946875 187.66095626 15.75 192.25 C14.60802748 196.43723256 14.31866067 200.68130938 14 205 C13.34 205 12.68 205 12 205 C11.76667969 204.43152344 11.53335938 203.86304688 11.29296875 203.27734375 C8.31093868 196.96555573 4.88507246 194.28541372 -1.078125 190.8203125 C-6.7139921 187.30919743 -11.84269138 182.75752755 -15.9375 177.5234375 C-18.24452175 174.70083134 -20.73291567 172.54446566 -23.5625 170.25 C-24.98755859 169.08210938 -24.98755859 169.08210938 -26.44140625 167.890625 C-28.92086584 165.85445384 -28.92086584 165.85445384 -32 165 C-30.515 165.99 -30.515 165.99 -29 167 C-28.67 167.99 -28.34 168.98 -28 170 C-26.37831888 171.68215965 -26.37831888 171.68215965 -24.375 173.3125 C-23.65828125 173.92351562 -22.9415625 174.53453125 -22.203125 175.1640625 C-20.80198446 176.33167961 -19.39622111 177.49378816 -17.984375 178.6484375 C-17.37078125 179.15632812 -16.7571875 179.66421875 -16.125 180.1875 C-15.57070313 180.63480469 -15.01640625 181.08210937 -14.4453125 181.54296875 C-11.75210754 184.25801051 -11.04441021 186.60030815 -10.625 190.375 C-11.06939355 194.67080432 -12.29591294 196.67783589 -15 200 C-18 202 -18 202 -20.6875 201.625 C-21.450625 201.41875 -22.21375 201.2125 -23 201 C-23 199.68 -23 198.36 -23 197 C-21.70264493 195.95374591 -20.36733028 194.95298777 -19 194 C-18.67 193.01 -18.34 192.02 -18 191 C-18.54269531 191.20496094 -19.08539063 191.40992188 -19.64453125 191.62109375 C-20.71767578 192.02521484 -20.71767578 192.02521484 -21.8125 192.4375 C-22.52019531 192.70433594 -23.22789062 192.97117187 -23.95703125 193.24609375 C-25.62672396 193.86225186 -27.31157704 194.43719235 -29 195 C-28.95875 195.94875 -28.9175 196.8975 -28.875 197.875 C-29 201 -29 201 -31 203 C-33.8203125 203.1953125 -33.8203125 203.1953125 -37.125 203.125 C-38.22070312 203.10695313 -39.31640625 203.08890625 -40.4453125 203.0703125 C-41.28835938 203.04710937 -42.13140625 203.02390625 -43 203 C-43.495 199.535 -43.495 199.535 -44 196 C-43.278125 195.773125 -42.55625 195.54625 -41.8125 195.3125 C-38.42314891 193.73080282 -36.4575312 191.79885498 -34 189 C-33.67 188.01 -33.34 187.02 -33 186 C-33.7425 186.804375 -34.485 187.60875 -35.25 188.4375 C-37.75304829 190.76988591 -38.7180955 191.63534394 -42 192 C-42.6875 189.8125 -42.6875 189.8125 -43 187 C-42.525625 186.278125 -42.05125 185.55625 -41.5625 184.8125 C-39.26202333 180.67164199 -39.59046302 176.64666957 -40 172 C-40.33 171.01 -40.66 170.02 -41 169 C-42.65 168.67 -44.3 168.34 -46 168 C-45.67 166.35 -45.34 164.7 -45 163 C-48.66305234 162.25073929 -51.42355152 161.7619986 -55 163 C-55.495 160.525 -55.495 160.525 -56 158 C-56.99 158.66 -57.98 159.32 -59 160 C-59.99 160 -60.98 160 -62 160 C-61.37240135 157.07120629 -60.41377341 154.63904371 -59 152 C-58.071875 152.061875 -57.14375 152.12375 -56.1875 152.1875 C-53.05517266 152.28277869 -53.05517266 152.28277869 -51.125 150.6875 C-49.7226499 148.92199528 -49.7226499 148.92199528 -50 146 C-51.485 148.475 -51.485 148.475 -53 151 C-54.98 150.67 -56.96 150.34 -59 150 C-58.44894091 146.0507432 -57.61064629 142.65079826 -56 139 C-56.66 139 -57.32 139 -58 139 C-58.103125 139.763125 -58.20625 140.52625 -58.3125 141.3125 C-59.05657891 144.22117209 -59.48017068 145.38010972 -62 147 C-64.6875 146.6875 -64.6875 146.6875 -67 146 C-67.391875 144.741875 -67.78375 143.48375 -68.1875 142.1875 C-70.03884094 136.59787448 -72.48545526 131.31731793 -75 126 C-74.67 127.19625 -74.34 128.3925 -74 129.625 C-73.10734177 133.15791497 -72.81703955 136.34079109 -73 140 C-76.9598713 138.71571741 -78.79358323 137.52901318 -81 134 C-81.44921875 131.87890625 -81.44921875 131.87890625 -81.6875 129.5625 C-82.71923754 123.67299823 -85.59719215 119.55039979 -88.8203125 114.59765625 C-91.28890621 110.67376356 -93.20288348 106.5525592 -95.0625 102.3125 C-95.37340576 101.61688965 -95.68431152 100.9212793 -96.00463867 100.20458984 C-96.73676804 98.49692407 -97.37709638 96.75046476 -98 95 C-97.505 94.01 -97.505 94.01 -97 93 C-95.8745809 94.60387267 -94.74968028 96.20810916 -93.625 97.8125 C-92.99851563 98.70582031 -92.37203125 99.59914063 -91.7265625 100.51953125 C-90.46449761 102.33267878 -89.22541192 104.16188211 -88 106 C-87.95101562 105.08476562 -87.90203125 104.16953125 -87.8515625 103.2265625 C-87.77679688 102.03804688 -87.70203125 100.84953125 -87.625 99.625 C-87.55539063 98.44164062 -87.48578125 97.25828125 -87.4140625 96.0390625 C-87 93 -87 93 -85 91 C-84.54109375 91.96421875 -84.0821875 92.9284375 -83.609375 93.921875 C-82.99001725 95.19812733 -82.37020128 96.47415737 -81.75 97.75 C-81.44964844 98.38421875 -81.14929688 99.0184375 -80.83984375 99.671875 C-79.00635455 103.41687422 -77.14112739 106.24803883 -74 109 C-74.34933594 108.26394531 -74.69867188 107.52789062 -75.05859375 106.76953125 C-75.51363281 105.79371094 -75.96867187 104.81789063 -76.4375 103.8125 C-76.88996094 102.84957031 -77.34242188 101.88664062 -77.80859375 100.89453125 C-79.71519566 96.26242629 -80.04460037 92.32272044 -80.08789062 87.3269043 C-80.24530809 78.25158028 -82.40025346 71.38776501 -86.40625 63.29296875 C-89.295648 57.32296258 -89.83518624 51.59070882 -89 45 C-87.43472626 41.3204386 -85.66126345 37.83063172 -82 36 C-82.33 36.825 -82.66 37.65 -83 38.5 C-85.5243357 47.33517493 -83.1828746 52.7551826 -79.125 60.625 C-75.01263233 68.8036584 -71.94716148 75.84410572 -71 85 C-70.67 82.69 -70.34 80.38 -70 78 C-69.34 78 -68.68 78 -68 78 C-65.39981184 81.90028225 -65.84914486 85.47434569 -66 90 C-63.28486989 84.57688486 -62.57865923 80.46119911 -62.75 74.4375 C-62.75773437 73.34405273 -62.75773437 73.34405273 -62.765625 72.22851562 C-62.82566373 68.05957635 -63.19600522 64.10426365 -64 60 C-61 61 -61 61 -59.8125 63.0625 C-59.544375 63.701875 -59.27625 64.34125 -59 65 C-56.70389096 64.08155638 -55.27893699 63.39144158 -53.828125 61.35546875 C-52.34093313 57.12538999 -53.53187248 52.77622319 -54.1015625 48.41015625 C-53.97857091 44.28047694 -52.84414709 42.89356277 -50 40 C-49.01 40.495 -49.01 40.495 -48 41 C-48.495 41.99 -48.495 41.99 -49 43 C-49.61560141 47.38616008 -49.79737116 49.71025215 -47.4375 53.52734375 C-45.69136913 55.75577287 -43.90215095 57.90375201 -42 60 C-40.07690578 59.96044102 -40.07690578 59.96044102 -38 59 C-34.34960552 53.87461542 -34.68481655 48.89452257 -34.6875 42.875 C-34.43029492 31.38716855 -31.60573926 23.83151859 -24 15 C-18.91973092 10.88281511 -12.64111349 8.25085837 -6.74853516 5.49853516 C-3.49096831 3.9357289 -2.05506452 3.08259679 0 0 Z " fill="#F60000" transform="translate(301,116)"/>
<path d="M0 0 C1.2065625 0.0309375 1.2065625 0.0309375 2.4375 0.0625 C2.53140139 3.77272798 2.52459219 7.47631429 2.5 11.1875 C2.52771484 12.23421875 2.55542969 13.2809375 2.58398438 14.359375 C2.46453064 21.90885127 2.46453064 21.90885127 -0.18237305 24.88208008 C-2.56118127 26.50408121 -4.98555749 27.77823535 -7.5625 29.0625 C-9.59653741 30.24167168 -11.62623135 31.42835631 -13.65234375 32.62109375 C-15.34072891 33.58048216 -17.02918063 34.53976235 -18.72009277 35.49468994 C-21.18453073 36.88663006 -23.64457052 38.28626616 -26.10494995 39.68536377 C-27.37877118 40.40964432 -28.65279964 41.13356052 -29.92703247 41.8571167 C-36.23723736 45.44115873 -42.5275876 49.05929835 -48.8125 52.6875 C-50.41532837 53.61260376 -50.41532837 53.61260376 -52.05053711 54.55639648 C-60.22393633 59.27895664 -68.37841057 64.03354108 -76.52880859 68.7956543 C-89.27256139 76.23699495 -102.06573051 83.59269894 -114.85351562 90.95800781 C-125.44885576 97.06150291 -136.04385912 103.16504734 -146.6015625 109.33349609 C-148.56127605 110.4778473 -150.52219793 111.62013197 -152.484375 112.76025391 C-157.28546775 115.55160541 -162.07313232 118.36164708 -166.83087158 121.22616577 C-169.20118955 122.6500185 -171.57924497 124.06061973 -173.95849609 125.46948242 C-175.64998182 126.47763849 -177.33100145 127.50328908 -179.01171875 128.52929688 C-180.04167969 129.13708984 -181.07164062 129.74488281 -182.1328125 130.37109375 C-183.49043701 131.18791626 -183.49043701 131.18791626 -184.87548828 132.02124023 C-188.28636045 133.34300743 -190.06405574 133.05101722 -193.5625 132.0625 C-196.21777344 130.81005859 -196.21777344 130.81005859 -198.921875 129.2109375 C-199.94168457 128.61466553 -200.96149414 128.01839355 -202.01220703 127.40405273 C-203.10130371 126.75509033 -204.19040039 126.10612793 -205.3125 125.4375 C-206.46801279 124.75821783 -207.62411137 124.07993127 -208.78076172 123.40258789 C-211.18324891 121.99468406 -213.58316241 120.58253309 -215.98144531 119.16748047 C-221.52522213 115.90192961 -227.10908088 112.70586197 -232.6875 109.5 C-241.98589504 104.14068246 -251.26187565 98.74391518 -260.52832031 93.32958984 C-272.17909185 86.52662377 -283.87153744 79.79607814 -295.5625 73.0625 C-309.22581267 65.19291843 -322.8810724 57.31106836 -336.4909668 49.34936523 C-341.82428001 46.23234486 -347.1680804 43.13468331 -352.52734375 40.0625 C-353.11085602 39.72758545 -353.69436829 39.3926709 -354.29556274 39.04760742 C-357.11096702 37.43168008 -359.92789838 35.81857477 -362.74804688 34.2109375 C-364.7647896 33.05414508 -366.77305481 31.88240769 -368.77124023 30.69384766 C-370.57990563 29.63677583 -372.42063681 28.63208896 -374.29321289 27.69287109 C-376.79851307 26.32652251 -378.65457827 25.18759057 -380.5625 23.0625 C-381.62290889 19.20497887 -381.42408955 15.64979751 -381.125 11.6875 C-381.0640918 10.15416016 -381.0640918 10.15416016 -381.00195312 8.58984375 C-380.8962227 6.07580919 -380.74872786 3.57164186 -380.5625 1.0625 C-366.42732135 3.66389404 -353.00150206 13.97364987 -340.81835938 21.15234375 C-335.41794895 24.32067092 -329.98935219 27.43976117 -324.5625 30.5625 C-322.40874589 31.80580203 -320.25510015 33.04929181 -318.1015625 34.29296875 C-314.18171476 36.55560183 -310.25748338 38.81018214 -306.32733154 41.05484009 C-303.52757374 42.65608252 -300.7331061 44.26652328 -297.9375 45.875 C-296.89335937 46.46796875 -295.84921875 47.0609375 -294.7734375 47.671875 C-293.8246875 48.21972656 -292.8759375 48.76757812 -291.8984375 49.33203125 C-290.63845947 50.05289917 -290.63845947 50.05289917 -289.35302734 50.78833008 C-288.76215332 51.20880615 -288.1712793 51.62928223 -287.5625 52.0625 C-287.5625 52.7225 -287.5625 53.3825 -287.5625 54.0625 C-285.2525 54.7225 -282.9425 55.3825 -280.5625 56.0625 C-280.5625 56.7225 -280.5625 57.3825 -280.5625 58.0625 C-278.2525 58.7225 -275.9425 59.3825 -273.5625 60.0625 C-273.5625 60.7225 -273.5625 61.3825 -273.5625 62.0625 C-271.2525 62.7225 -268.9425 63.3825 -266.5625 64.0625 C-266.5625 64.7225 -266.5625 65.3825 -266.5625 66.0625 C-265.428125 66.35125 -264.29375 66.64 -263.125 66.9375 C-261.3615625 67.494375 -261.3615625 67.494375 -259.5625 68.0625 C-259.2325 68.7225 -258.9025 69.3825 -258.5625 70.0625 C-256.53786745 70.71463292 -256.53786745 70.71463292 -254.5625 71.0625 C-254.5625 71.7225 -254.5625 72.3825 -254.5625 73.0625 C-253.92441406 73.25585938 -253.28632813 73.44921875 -252.62890625 73.6484375 C-251.38947266 74.03902344 -251.38947266 74.03902344 -250.125 74.4375 C-249.30128906 74.69273437 -248.47757813 74.94796875 -247.62890625 75.2109375 C-245.5625 76.0625 -245.5625 76.0625 -244.5625 78.0625 C-243.9025 78.2275 -243.2425 78.3925 -242.5625 78.5625 C-241.9025 78.7275 -241.2425 78.8925 -240.5625 79.0625 C-240.2325 79.7225 -239.9025 80.3825 -239.5625 81.0625 C-238.5725 81.3925 -237.5825 81.7225 -236.5625 82.0625 C-233.5625 83.0625 -233.5625 83.0625 -232.5625 85.0625 C-231.5725 85.3925 -230.5825 85.7225 -229.5625 86.0625 C-226.5625 87.0625 -226.5625 87.0625 -225.5625 89.0625 C-224.9025 89.2275 -224.2425 89.3925 -223.5625 89.5625 C-222.9025 89.7275 -222.2425 89.8925 -221.5625 90.0625 C-221.2325 90.7225 -220.9025 91.3825 -220.5625 92.0625 C-219.5725 92.3925 -218.5825 92.7225 -217.5625 93.0625 C-214.5625 94.0625 -214.5625 94.0625 -213.5625 96.0625 C-212.5725 96.3925 -211.5825 96.7225 -210.5625 97.0625 C-207.5625 98.0625 -207.5625 98.0625 -206.5625 100.0625 C-205.5725 100.3925 -204.5825 100.7225 -203.5625 101.0625 C-200.5625 102.0625 -200.5625 102.0625 -199.5625 104.0625 C-197.58361039 104.78943904 -195.58295442 105.46066251 -193.5625 106.0625 C-193.5625 106.7225 -193.5625 107.3825 -193.5625 108.0625 C-186.52511337 107.77049226 -181.6621041 104.54497565 -175.75 100.9375 C-173.59555793 99.65149593 -171.44059206 98.36636906 -169.28515625 97.08203125 C-167.62057373 96.08357178 -167.62057373 96.08357178 -165.92236328 95.06494141 C-160.54441541 91.85974388 -155.11599366 88.74355758 -149.6875 85.625 C-147.50247497 84.36610964 -145.3175798 83.10699385 -143.1328125 81.84765625 C-142.04774414 81.22262207 -140.96267578 80.59758789 -139.84472656 79.95361328 C-134.41590055 76.8256985 -128.98932751 73.69388034 -123.5625 70.5625 C-121.40234643 69.31640161 -119.24219017 68.07030786 -117.08203125 66.82421875 C-112.68290925 64.28634007 -108.28455679 61.74713417 -103.88671875 59.20703125 C-93.91602117 53.44941778 -83.94110259 47.70028107 -73.9375 42 C-65.55486342 37.22159279 -57.21470979 32.3729714 -48.88574219 27.50170898 C-43.47025148 24.33627351 -38.04824378 21.18267305 -32.61328125 18.05078125 C-32.03336929 17.7166069 -31.45345734 17.38243256 -30.85597229 17.03813171 C-28.06024579 15.42772464 -25.26359056 13.81894885 -22.46606445 12.21166992 C-1.29900023 0.03168293 -1.29900023 0.03168293 0 0 Z " fill="#F2E708" transform="translate(445.5625,354.9375)"/>
<path d="M0 0 C0.36351562 0.83144531 0.36351562 0.83144531 0.734375 1.6796875 C1.06953125 2.40414063 1.4046875 3.12859375 1.75 3.875 C2.07484375 4.59429687 2.3996875 5.31359375 2.734375 6.0546875 C4.26430568 8.40624762 5.36788746 9.08046346 8 10 C15.34103967 10.56693178 21.59338352 7.12272187 28 4 C36.20853845 0.33235516 44.64628535 1.19029056 52.875 4.3125 C56.04798659 5.63656583 59.07276358 7.03913104 62.1015625 8.66796875 C66.35025595 10.62053542 69.57480991 10.30385065 74 9 C76.5675171 7.56112063 77.94341542 6.21082842 80 4 C80.33 2.68 80.66 1.36 81 0 C85.95 0.99 85.95 0.99 91 2 C91 6.30860925 90.3407504 7.36729062 87.55859375 10.48046875 C82.19388957 15.7107192 76.40326959 19.27893303 68.75 19.3125 C63.39426618 19.23256367 58.92341125 18.04230393 54 16 C59.12325529 18.45489316 63.33895411 19.50341703 69 20 C67.95505436 23.25094199 66.40864509 24.56873286 63.5625 26.25 C60 28 60 28 57 28 C56.9175 28.7425 56.835 29.485 56.75 30.25 C55.84562401 33.56604529 54.6285474 34.83531391 52 37 C47.89828957 38.36723681 44.04775005 38.30326214 39.75 38.375 C38.91597656 38.41238281 38.08195312 38.44976562 37.22265625 38.48828125 C31.84010352 38.56432988 28.58958682 37.71105006 24.2800293 34.45288086 C22.06187816 31.93519682 22.06330308 29.2284571 22 26 C21.195625 26.12375 20.39125 26.2475 19.5625 26.375 C14.44147751 25.835945 10.96599168 23.18160666 7 20 C7 19.67 7 19.34 7 19 C9.97 19 12.94 19 16 19 C16 18.34 16 17.68 16 17 C15.154375 17.05800781 14.30875 17.11601562 13.4375 17.17578125 C7.1089937 17.42748321 1.96526538 17.61747145 -3.27734375 13.77734375 C-6.60823879 10.34070601 -8.82961645 6.23389216 -11 2 C-7.12315913 0.80712589 -4.08378077 0 0 0 Z " fill="#F40000" transform="translate(219,348)"/>
<path d="M0 0 C0.99 0 1.98 0 3 0 C2.9175 1.19625 2.835 2.3925 2.75 3.625 C2.74207009 8.09747065 4.11295913 10.53555096 7 14 C7.99 14.66 8.98 15.32 10 16 C10.41650391 17.83178711 10.41650391 17.83178711 10.4765625 20.02734375 C10.5075 20.81947266 10.5384375 21.61160156 10.5703125 22.42773438 C10.58835937 23.25595703 10.60640625 24.08417969 10.625 24.9375 C10.67610963 26.5717304 10.73065845 28.20585778 10.7890625 29.83984375 C10.80662598 30.56550537 10.82418945 31.29116699 10.84228516 32.03881836 C10.93855072 34.21425915 10.93855072 34.21425915 12 37 C14.00016466 38.20882096 14.00016466 38.20882096 16 39 C16 39.66 16 40.32 16 41 C15.01 41 14.02 41 13 41 C13 43.31 13 45.62 13 48 C10.625 48.625 10.625 48.625 8 49 C7.34 48.34 6.68 47.68 6 47 C3.94603274 47.40929986 3.94603274 47.40929986 2 48 C1.67 47.67 1.34 47.34 1 47 C1.28730055 44.66055264 1.61936779 42.3260857 2 40 C1.34 40 0.68 40 0 40 C0.020625 41.134375 0.04125 42.26875 0.0625 43.4375 C0 47 0 47 -1 48 C-6.52941176 48.23529412 -6.52941176 48.23529412 -9 47 C-9.680625 48.2684375 -9.680625 48.2684375 -10.375 49.5625 C-15.10494176 56.6658289 -24.18500647 61.62495822 -32.36743164 63.55981445 C-37.03294913 64.33992463 -41.71800294 64.18454107 -46.4375 64.1875 C-47.46166016 64.19974609 -48.48582031 64.21199219 -49.54101562 64.22460938 C-54.7552107 64.23473403 -59.12914106 64.11376897 -64 62 C-61.25044144 60.16696096 -58.75249398 59.13176637 -55.65600586 58.04736328 C-40.70632475 52.79972011 -29.48545387 46.37207143 -22 32 C-22.66 31.67 -23.32 31.34 -24 31 C-24.66 32.65 -25.32 34.3 -26 36 C-29.875 35.125 -29.875 35.125 -31 34 C-31.30097064 31.09884039 -31.21044024 29.4050795 -29.85546875 26.796875 C-27.16743093 23.49820564 -25.31016606 21.3301759 -21.0859375 20.265625 C-18.36673799 20.02672892 -15.72738216 19.9210884 -13 20 C-12.01 17.36 -11.02 14.72 -10 12 C-6 12 -6 12 -3.25 13.625 C-1 16 -1 16 -0.5625 19.0625 C-1 22 -1 22 -3 25 C-5.125 25.6875 -5.125 25.6875 -7 26 C-7 26.99 -7 27.98 -7 29 C-4.00594421 28.53146378 -4.00594421 28.53146378 -1 27 C1.20130379 22.11884812 1.36134725 18.15367175 0 13 C-1.91621575 10.579887 -1.91621575 10.579887 -4 9 C-2.80100302 5.9168649 -1.52299523 2.93720508 0 0 Z " fill="#00F0F0" transform="translate(243,283)"/>
<path d="M0 0 C2.30275556 1.8670991 3.67823871 3.35647741 5 6 C5.26604662 9.222792 5.23159402 12.45495022 5.25 15.6875 C5.270625 16.57373047 5.29125 17.45996094 5.3125 18.37304688 C5.35777645 26.01910692 3.79940812 31.72631873 -1.41015625 37.6484375 C-9.55227309 44.57023708 -20.68900074 44.75069027 -30.80224609 44.23974609 C-37.19715564 43.54214543 -43.14922767 40.74669106 -48.58203125 37.41796875 C-50.89324617 36.06260362 -52.86870562 35.33015924 -55.4375 34.625 C-60.62882471 32.9724283 -64.03675882 30.58790883 -67.375 26.1875 C-69.0063488 20.47777919 -68.16399872 15.40999679 -66 10 C-65.67 10 -65.34 10 -65 10 C-64.97421875 10.79664063 -64.9484375 11.59328125 -64.921875 12.4140625 C-64.52262687 20.95248814 -64.52262687 20.95248814 -60 28 C-53.46008299 31.89392476 -47.42545138 31.8523697 -40 31 C-28.60137006 27.6272547 -21.76715712 18.02579465 -14.94360352 8.92407227 C-7.23339498 -1.23121617 -7.23339498 -1.23121617 0 0 Z " fill="#060000" transform="translate(326,237)"/>
<path d="M0 0 C1.95703125 2.16015625 1.95703125 2.16015625 3.8125 5.0625 C13.29013447 18.80330834 26.26325254 23.62152689 42 28 C41 30 41 30 37.98046875 31.10546875 C26.31436463 34.13419744 11.6444746 32.94168222 1 27.453125 C-4.20792498 24.32282966 -8.92366824 21.30402028 -12 16 C-12.83945574 12.09194552 -12.9447596 8.66722282 -10.9375 5.125 C-7.68097902 1.09311688 -5.20400934 -0.75454246 0 0 Z " fill="#00F6F6" transform="translate(302,317)"/>
<path d="M0 0 C2 2 2 2 2 5 C1.01 5 0.02 5 -1 5 C-1 4.01 -1 3.02 -1 2 C-1.99 2.33 -2.98 2.66 -4 3 C-4 3.99 -4 4.98 -4 6 C-2.4221875 6.061875 -2.4221875 6.061875 -0.8125 6.125 C4.25826632 7.28878243 5.21603229 8.69750444 8 13 C8 14.32 8 15.64 8 17 C8.66 17 9.32 17 10 17 C11.17571451 20.67410785 11.07366746 24.16929183 11 28 C9.68 28.33 8.36 28.66 7 29 C7 30.32 7 31.64 7 33 C5.08364783 33.05423638 3.16685075 33.09289963 1.25 33.125 C0.18265625 33.14820313 -0.8846875 33.17140625 -1.984375 33.1953125 C-4.92470106 33.00487687 -6.52361878 32.52670104 -9 31 C-9 29.68 -9 28.36 -9 27 C-9.66 27 -10.32 27 -11 27 C-11.66 24.69 -12.32 22.38 -13 20 C-14.2684375 19.938125 -14.2684375 19.938125 -15.5625 19.875 C-20.1329153 18.71162156 -22.85861591 16.46463997 -26 13 C-27.4375 10.125 -27.4375 10.125 -28 8 C-27.34 8 -26.68 8 -26 8 C-25.01 9.485 -25.01 9.485 -24 11 C-22.68 11 -21.36 11 -20 11 C-21.40742064 7.48144841 -22.66466523 6.61387166 -26 5 C-26.33 4.01 -26.66 3.02 -27 2 C-26.484375 2.268125 -25.96875 2.53625 -25.4375 2.8125 C-23.43315171 3.78897737 -21.37772751 4.65990745 -19.3125 5.5 C-16 7 -16 7 -15 9 C-14.79375 8.071875 -14.5875 7.14375 -14.375 6.1875 C-13 3 -13 3 -10.3125 1.125 C-6.62543642 -0.12721027 -3.86797671 -0.37192084 0 0 Z " fill="#001D1D" transform="translate(215,248)"/>
<path d="M0 0 C4.64474974 -0.32405231 7.29105728 0.11526677 11 3 C13.55206987 7.20867663 13.7945227 11.19941021 13 16 C8.30289562 23.63279461 -0.7698426 28.51114031 -9.37524414 30.56762695 C-14.03915904 31.33590835 -18.72124095 31.1845431 -23.4375 31.1875 C-24.97374023 31.20586914 -24.97374023 31.20586914 -26.54101562 31.22460938 C-31.7552107 31.23473403 -36.12914106 31.11376897 -41 29 C-38.25044144 27.16696096 -35.75249398 26.13176637 -32.65600586 25.04736328 C-19.83351703 20.54640802 -7.55891072 15.1650209 -1.0625 2.5 C-0.5365625 1.2625 -0.5365625 1.2625 0 0 Z " fill="#00F9F9" transform="translate(220,316)"/>
<path d="M0 0 C7.17102813 2.42455155 13.53983052 8.20779193 17.625 14.5625 C19.37465062 18.93662655 19.60426178 21.31697118 19 26 C16.8755173 29.44312714 15.85147359 30.71617547 12 32 C5.92416217 32.54379271 1.29622616 32.34498494 -4 29 C-4 28.34 -4 27.68 -4 27 C-5.08861328 26.87818359 -5.08861328 26.87818359 -6.19921875 26.75390625 C-9.62883651 25.8307316 -11.23911505 24.35725002 -13.8125 21.9375 C-14.60269531 21.20402344 -15.39289063 20.47054688 -16.20703125 19.71484375 C-16.79871094 19.14894531 -17.39039063 18.58304687 -18 18 C-16.25177905 16.17093646 -14.83791359 14.9061605 -12.625 13.625 C-7.78036131 10.62593795 -4.78198083 6.90158527 -2 2 C-1.34 1.34 -0.68 0.68 0 0 Z " fill="#001D1D" transform="translate(347,282)"/>
<path d="M0 0 C3 2 3 2 5 5 C5.46019531 5.62777344 5.92039062 6.25554687 6.39453125 6.90234375 C8.59147426 10.05553193 9.90171177 12.43211245 10.5625 16.25 C9.86005575 19.68417188 8.74980255 20.87872375 6 23 C1.89828957 24.36723681 -1.95224995 24.30326214 -6.25 24.375 C-7.50103516 24.43107422 -7.50103516 24.43107422 -8.77734375 24.48828125 C-14.03537136 24.56257049 -17.59109253 23.88779133 -21.703125 20.47827148 C-23.87077342 18.00742977 -24.18487474 16.23950973 -24 13 C-22.453125 10.33203125 -22.453125 10.33203125 -20.25 7.8125 C-19.53328125 6.97332031 -18.8165625 6.13414062 -18.078125 5.26953125 C-17.39234375 4.52058594 -16.7065625 3.77164062 -16 3 C-15.54882812 2.41605469 -15.09765625 1.83210938 -14.6328125 1.23046875 C-10.72883069 -1.71152711 -4.59380494 -0.60170745 0 0 Z " fill="#FA0000" transform="translate(265,362)"/>
<path d="M0 0 C0.66 0 1.32 0 2 0 C6.59468798 5.15161986 6.76073089 10.27653809 7 17 C7.66 15.02 8.32 13.04 9 11 C9.66 11.33 10.32 11.66 11 12 C11.74609375 14.51171875 11.74609375 14.51171875 12.4375 17.6875 C13.48411589 22.17833655 14.75805815 25.94315284 17 30 C17 30.66 17 31.32 17 32 C16.51917969 32.4434375 16.03835937 32.886875 15.54296875 33.34375 C13.59670819 35.43290057 13.52350909 36.68654548 13.3125 39.5 C13.24675781 40.2734375 13.18101562 41.046875 13.11328125 41.84375 C12.84806399 46.89202331 14.06625892 48.87442661 17 53 C16.67 53.66 16.34 54.32 16 55 C14.09931562 53.778348 12.20466117 52.54731206 10.3125 51.3125 C9.25675781 50.62800781 8.20101562 49.94351563 7.11328125 49.23828125 C2.99345137 46.27634584 -0.18540903 43.22188646 -3 39 C-2.34 39 -1.68 39 -1 39 C-1.639375 38.01 -2.27875 37.02 -2.9375 36 C-5.26075596 31.97520447 -5.61665549 28.6001341 -6 24 C-6.33 23.01 -6.66 22.02 -7 21 C-7.99 20.67 -8.98 20.34 -10 20 C-8.1875 19.375 -8.1875 19.375 -6 19 C-5.01 19.66 -4.02 20.32 -3 21 C-2.34 21 -1.68 21 -1 21 C-0.07907719 16.34462644 0.12205997 11.85314567 0.0625 7.125 C0.05798828 6.43664062 0.05347656 5.74828125 0.04882812 5.0390625 C0.03716336 3.35933665 0.01923271 1.67965625 0 0 Z " fill="#F40000" transform="translate(169,239)"/>
<path d="M0 0 C3.6602807 4.35747702 5.77737144 8.8850287 6.375 14.5625 C5.59123528 21.74700991 2.12198642 25.10959346 -3.2578125 29.484375 C-5.39058687 31.33979306 -5.94020218 32.36062326 -6.203125 35.171875 C-6.21859375 36.02265625 -6.2340625 36.8734375 -6.25 37.75 C-6.27578125 38.59046875 -6.3015625 39.4309375 -6.328125 40.296875 C-6.17127175 43.10731999 -6.17127175 43.10731999 -4.46484375 45.5859375 C-2.27258397 50.69536429 -2.93209552 55.40794799 -3.3125 60.875 C-3.37373047 61.94492188 -3.43496094 63.01484375 -3.49804688 64.1171875 C-3.65061471 66.74604874 -3.81835689 69.37301439 -4 72 C-7.33638585 66.99542122 -8.05810513 61.79528733 -8.9375 55.9375 C-9.64439199 51.39077072 -10.90231802 48.10001478 -13 44 C-14.14452917 37.64150463 -11.35864142 33.43663649 -8.453125 27.9921875 C-6.84113301 24.67287066 -6.12599797 21.68612243 -5.49609375 18.08203125 C-4.9480013 15.78176925 -4.06810312 14.00960181 -2.9375 11.9375 C-0.7766414 7.94513299 -0.32202764 4.5083869 0 0 Z " fill="#ED0000" transform="translate(343,177)"/>
<path d="M0 0 C3.50432398 1.68439882 6.02242778 3.43809659 8.74609375 6.20703125 C12.95750744 8.37290115 17.09465193 8.73400327 21.74609375 9.20703125 C20.70114811 12.45797324 19.15473884 13.77576411 16.30859375 15.45703125 C12.74609375 17.20703125 12.74609375 17.20703125 9.74609375 17.20703125 C9.41609375 18.52703125 9.08609375 19.84703125 8.74609375 21.20703125 C8.53984375 20.42328125 8.33359375 19.63953125 8.12109375 18.83203125 C6.24543088 13.88710186 4.10704963 9.32516799 0.74609375 5.20703125 C-2.60983488 3.8704298 -2.60983488 3.8704298 -6.25390625 4.20703125 C-7.55328125 4.00078125 -8.85265625 3.79453125 -10.19140625 3.58203125 C-13.20946505 3.58790296 -14.11650371 4.08711183 -16.43359375 6.109375 C-18.47098889 8.41170614 -20.36524744 10.78234511 -22.25390625 13.20703125 C-23.75 15.03125 -23.75 15.03125 -25.25390625 16.20703125 C-31.53217005 15.36992941 -35.37314013 13.17265373 -40.25390625 9.20703125 C-40.25390625 8.87703125 -40.25390625 8.54703125 -40.25390625 8.20703125 C-37.28390625 8.20703125 -34.31390625 8.20703125 -31.25390625 8.20703125 C-31.25390625 7.54703125 -31.25390625 6.88703125 -31.25390625 6.20703125 C-30.22910156 5.86929687 -29.20429688 5.5315625 -28.1484375 5.18359375 C-26.78773362 4.73315385 -25.42705803 4.28262849 -24.06640625 3.83203125 C-23.39287109 3.6103125 -22.71933594 3.38859375 -22.02539062 3.16015625 C-19.15477468 2.20795194 -16.32495998 1.23684115 -13.53515625 0.06640625 C-9.07700789 -1.6130332 -4.49280345 -1.58065702 0 0 Z " fill="#230000" transform="translate(266.25390625,358.79296875)"/>
<path d="M0 0 C0.66 0 1.32 0 2 0 C2.92539985 4.72324085 3.19184009 9.3253996 3.1875 14.125 C3.18814453 14.86548584 3.18878906 15.60597168 3.18945312 16.36889648 C3.12915892 22.71143584 2.33883573 28.79593087 1 35 C1.30292969 34.36191406 1.60585938 33.72382813 1.91796875 33.06640625 C2.33691406 32.24011719 2.75585938 31.41382813 3.1875 30.5625 C3.59355469 29.73878906 3.99960937 28.91507813 4.41796875 28.06640625 C6 26 6 26 8.67578125 25.21484375 C9.44277344 25.14394531 10.20976562 25.07304687 11 25 C9.92188894 26.89880796 8.83726681 28.79391978 7.75 30.6875 C7.14671875 31.74324219 6.5434375 32.79898438 5.921875 33.88671875 C4 37 4 37 1.78125 39.65625 C-0.62868278 42.82721419 -0.30407788 45.12300698 0 49 C-1.32 48.34 -2.64 47.68 -4 47 C-4.40026089 41.19621713 -3.76606061 36.8093598 -2 31.25 C0.3191368 23.70256187 1.54860292 15.64580876 -1 8 C-7.15295017 11.90475684 -10.54922801 15.28499104 -12.75 22.4375 C-12.8325 22.953125 -12.915 23.46875 -13 24 C-13.66 24 -14.32 24 -15 24 C-15.50336767 22.37604003 -16.00258976 20.75079459 -16.5 19.125 C-16.7784375 18.22007812 -17.056875 17.31515625 -17.34375 16.3828125 C-18 14 -18 14 -18 12 C-23.23733677 14.97575953 -25.41241607 17.53732281 -28 23 C-28.77485832 25.77138597 -28.77485832 25.77138597 -29 28 C-29.66 28 -30.32 28 -31 28 C-31.42392907 21.85302842 -31.07421729 18.90995416 -27 14 C-25.19407564 12.19801871 -23.37315268 10.43032771 -21.48828125 8.7109375 C-19.83388773 6.80903629 -19.40297349 5.46082478 -19 3 C-18.34 3 -17.68 3 -17 3 C-16.34 7.29 -15.68 11.58 -15 16 C-13.7625 14.205625 -13.7625 14.205625 -12.5 12.375 C-9.64827343 8.53639908 -6.57091684 5.90931091 -2.63671875 3.2265625 C-0.85422082 2.08140431 -0.85422082 2.08140431 0 0 Z " fill="#1E0103" transform="translate(288,204)"/>
<path d="M0 0 C2.6875 -0.375 2.6875 -0.375 6 0 C9.67766646 3.67766646 12.95544176 7.28194753 13.04296875 12.62109375 C13.02878906 13.40613281 13.01460937 14.19117188 13 15 C12.16750732 14.97381592 11.33501465 14.94763184 10.47729492 14.9206543 C7.3855631 14.83539045 4.2944305 14.77273248 1.2019043 14.7253418 C-0.79353555 14.68785626 -2.78843052 14.62432465 -4.78320312 14.56054688 C-6.03681641 14.54443359 -7.29042969 14.52832031 -8.58203125 14.51171875 C-9.73936768 14.48553467 -10.8967041 14.45935059 -12.08911133 14.43237305 C-15.22177956 14.69404383 -15.22177956 14.69404383 -16.77612305 17.53051758 C-17.38194214 18.75291138 -17.38194214 18.75291138 -18 20 C-18.66 20 -19.32 20 -20 20 C-21.35811733 13.579809 -21.35811733 13.579809 -19.6875 10.875 C-19.130625 10.25625 -18.57375 9.6375 -18 9 C-17.28837557 7.35202764 -16.60968047 5.68834592 -16 4 C-12 4 -12 4 -9 5 C-9 4.01 -9 3.02 -9 2 C-6.11424181 2.39803561 -5.17810487 2.79009069 -3.25 5.0625 C-2.8375 5.701875 -2.425 6.34125 -2 7 C-1.34 4.69 -0.68 2.38 0 0 Z " fill="#00EFEF" transform="translate(204,232)"/>
<path d="M0 0 C6.04942966 2.12547529 6.04942966 2.12547529 8 5 C8.42478586 9.07794425 8.31282587 10.53076119 6 14 C4.68 14.33 3.36 14.66 2 15 C1.34 17.97 0.68 20.94 0 24 C-3 24 -3 24 -4.5625 22.5625 C-5.036875 22.046875 -5.51125 21.53125 -6 21 C-8.86120256 19.56939872 -10.84010585 19.61307419 -14 20 C-15.9354148 22.39056942 -15.9354148 22.39056942 -17 25 C-20.875 24.125 -20.875 24.125 -22 23 C-22.30097064 20.09884039 -22.21044024 18.4050795 -20.85546875 15.796875 C-18.16743093 12.49820564 -16.31016606 10.3301759 -12.0859375 9.265625 C-9.36673799 9.02672892 -6.72738216 8.9210884 -4 9 C-3.79503906 8.43410156 -3.59007812 7.86820312 -3.37890625 7.28515625 C-3.10949219 6.55167969 -2.84007812 5.81820313 -2.5625 5.0625 C-2.29566406 4.33160156 -2.02882812 3.60070312 -1.75390625 2.84765625 C-1 1 -1 1 0 0 Z " fill="#00F7F7" transform="translate(234,294)"/>
<path d="M0 0 C7.02498262 1.98532118 10.81622405 7.81768445 14.8125 13.5 C15.4154187 14.35597778 15.4154187 14.35597778 16.03051758 15.22924805 C18.875 19.43190118 18.875 19.43190118 18.875 22.8125 C12.94354206 20.17629647 9.57362996 16.72997377 6.5 11.0625 C3.93861024 6.61879895 3.93861024 6.61879895 -0.75 4.875 C-6.55300489 6.4869458 -8.92400746 9.37709852 -12.0625 14.3125 C-14.63127306 18.26997525 -16.71336988 20.82294132 -21.125 22.8125 C-24.17619409 23.2100329 -27.08570347 23.335259 -30.125 22.8125 C-33.07683101 19.86066899 -33.21163988 16.85738053 -34.125 12.8125 C-33.29097656 12.95429688 -32.45695312 13.09609375 -31.59765625 13.2421875 C-23.59703108 14.32585414 -23.59703108 14.32585414 -16.375 11.3125 C-14.92907855 10.18229351 -13.51261906 9.0135699 -12.125 7.8125 C-4.06360105 1.05653627 -4.06360105 1.05653627 0 0 Z " fill="#EC0000" transform="translate(300.125,310.1875)"/>
<path d="M0 0 C4.7641342 0.70579766 8.91199393 3.43423684 13.125 5.625 C21.31785002 9.54331958 30.49575492 8.61235372 39.0859375 6.37890625 C41.59010244 5.8831838 43.58690769 6.22158313 46 7 C46.75 8.75 46.75 8.75 47 11 C45.18033328 13.44955135 43.84771559 14.76226426 40.8828125 15.59375 C37.07819382 16.12990223 33.33847564 16.26277881 29.5 16.3125 C28.75363281 16.34150391 28.00726563 16.37050781 27.23828125 16.40039062 C21.99387018 16.46072456 20.06051964 15.45943485 16 12 C13.32712393 11.02814141 10.59365264 10.45388245 7.8125 9.875 C0.24404086 8.24404086 0.24404086 8.24404086 -2 6 C-1.44444444 1.44444444 -1.44444444 1.44444444 0 0 Z " fill="#00F5F5" transform="translate(190,275)"/>
<path d="M0 0 C2.76983885 0.35219934 3.77196212 0.71894332 5.5625 2.92578125 C6.036875 3.71339844 6.51125 4.50101563 7 5.3125 C9.07051117 8.61270562 11.05813416 11.39758022 14 14 C13.65775391 12.96939453 13.65775391 12.96939453 13.30859375 11.91796875 C13.02113281 11.01691406 12.73367187 10.11585938 12.4375 9.1875 C12.14746094 8.29417969 11.85742188 7.40085938 11.55859375 6.48046875 C11 4 11 4 12 1 C12.53625 2.093125 13.0725 3.18625 13.625 4.3125 C15.76490334 8.11254188 18.05640869 9.15406364 22 11 C23.5625 13.125 23.5625 13.125 25 16 C25.65548828 17.11568359 25.65548828 17.11568359 26.32421875 18.25390625 C29.10182095 22.99485466 29.10182095 22.99485466 30 25 C29.67 25.66 29.34 26.32 29 27 C26.36 24.36 23.72 21.72 21 19 C21.33 20.98 21.66 22.96 22 25 C21.34 25 20.68 25 20 25 C20 26.65 20 28.3 20 30 C19.443125 29.71125 18.88625 29.4225 18.3125 29.125 C16.00566814 27.93354207 16.00566814 27.93354207 13.4375 27.1875 C10.25083816 25.63502372 9.61470328 24.13922366 8 21 C7.29319484 18.72639861 6.65064548 16.43214579 6.0625 14.125 C4.62015106 8.82339308 3.03997357 4.55996036 0 0 Z " fill="#EE0000" transform="translate(163,208)"/>
<path d="M0 0 C7.17102813 2.42455155 13.53983052 8.20779193 17.625 14.5625 C19.37465062 18.93662655 19.60426178 21.31697118 19 26 C16.8755173 29.44312714 15.85147359 30.71617547 12 32 C5.92416217 32.54379271 1.29622616 32.34498494 -4 29 C-2.125 24.125 -2.125 24.125 -1 23 C2.08454692 23.18171116 5.1420268 23.52145216 8.21484375 23.84375 C10.95625348 24.22879449 10.95625348 24.22879449 13 23 C13.46397935 19.10257342 13.25225057 17.38244441 11.0625 14.0625 C7.50571357 10.18704195 3.22142887 7.10859032 -1 4 C-0.67 2.68 -0.34 1.36 0 0 Z " fill="#00F6F6" transform="translate(347,282)"/>
<path d="M0 0 C4.62609198 -0.3227506 7.28026121 0.15549386 11 3 C11 3.66 11 4.32 11 5 C11.99 5 12.98 5 14 5 C14.33 4.34 14.66 3.68 15 3 C15.33 3.99 15.66 4.98 16 6 C16.7425 5.95875 17.485 5.9175 18.25 5.875 C21 6 21 6 23 7.0625 C25.01459711 8.26741357 25.01459711 8.26741357 27.375 7.375 C30 7 30 7 33.3125 8.5 C36 11 36 11 36.375 14.75 C36.189375 16.35875 36.189375 16.35875 36 18 C33.625 18.625 33.625 18.625 31 19 C30.34 18.34 29.68 17.68 29 17 C26.94603274 17.40929986 26.94603274 17.40929986 25 18 C24.67 17.67 24.34 17.34 24 17 C24.28730055 14.66055264 24.61936779 12.3260857 25 10 C24.34 10 23.68 10 23 10 C23.020625 11.134375 23.04125 12.26875 23.0625 13.4375 C23 17 23 17 22 18 C18.63370749 18.14636054 16.21580438 18.07193479 13 17 C12.375 15.0390625 12.375 15.0390625 12 12.625 C11.44675622 9.086545 10.8959528 7.21615168 8 5 C6.80375 4.67 5.6075 4.34 4.375 4 C2.704375 3.505 2.704375 3.505 1 3 C0.67 2.01 0.34 1.02 0 0 Z " fill="#002626" transform="translate(220,313)"/>
<path d="M0 0 C9.34157741 4.15181218 15.32076708 13.62777036 19.15625 22.75 C20.22610681 26.87092992 20.21828693 30.64120838 20.125 34.875 C20.11597656 35.65875 20.10695312 36.4425 20.09765625 37.25 C20.07428063 39.16680055 20.03841653 41.08344191 20 43 C16.26485097 39.79729122 14.62086021 36.32826985 12.9375 31.8125 C12.54582642 30.80449341 12.54582642 30.80449341 12.14624023 29.77612305 C10.81823192 26.32230261 9.61825095 22.85773775 8.5625 19.3125 C6.99803169 14.30429351 4.18898031 10.02954609 1.42578125 5.6015625 C0 3 0 3 0 0 Z " fill="#ED0000" transform="translate(181,193)"/>
<path d="M0 0 C3.9613863 1.3868408 6.87434343 3.25300091 10.1875 5.8125 C20.38965167 13.27053098 28.01434919 16.84202894 41 15 C49.44280247 12.42854353 56.94577362 8.26267682 64 3 C63.28413323 8.09189104 59.87154206 10.57230732 56.1484375 13.8046875 C48.69266662 19.00337638 39.51502605 21.54969608 30.44140625 21.56640625 C23.38747088 19.92989324 17.79700318 15.5867915 12.3125 11.0625 C11.67505859 10.55009766 11.03761719 10.03769531 10.38085938 9.50976562 C6.70194251 6.52183211 3.28766315 3.41338641 0 0 Z " fill="#100202" transform="translate(273,277)"/>
<path d="M0 0 C4.37657556 0.44914737 6.86225815 3.34691229 9.8125 6.3125 C10.32748047 6.79912109 10.84246094 7.28574219 11.37304688 7.78710938 C12.83203125 9.23828125 12.83203125 9.23828125 15 12 C14.91707975 15.86270143 12.45053683 18.1542153 10 21 C3.96508491 19.11408904 -1.50401226 15.24398161 -5 10 C-4.76838349 5.59928637 -2.8638918 3.23342622 0 0 Z " fill="#00F9F9" transform="translate(324,300)"/>
<path d="M0 0 C-0.41556417 4.84824868 -2.37448245 6.88036862 -6 10 C-10.48824939 12.69482756 -14.89779696 12.67195936 -20 12 C-22.65623594 10.91870041 -24.62535342 9.65192806 -27 8 C-26.125 4.125 -26.125 4.125 -25 3 C-19.47058824 2.76470588 -19.47058824 2.76470588 -17 4 C-11.87550686 4.62493819 -8.44874671 3.07693716 -3.953125 0.875 C-2 0 -2 0 0 0 Z " fill="#00EFEF" transform="translate(363,314)"/>
<path d="M0 0 C2.87887534 5.75775068 0.839265 16.97251439 -0.85546875 23.0859375 C-2.43218075 26.72264488 -4.09585675 29.28670045 -7 32 C-8.36143642 27.91569075 -8.30318446 24.09205321 -8.375 19.8125 C-8.41238281 18.98685547 -8.44976562 18.16121094 -8.48828125 17.31054688 C-8.57703571 11.05335731 -7.10601885 6.78403014 -3 2 C-2.01 1.34 -1.02 0.68 0 0 Z " fill="#EC0000" transform="translate(357,239)"/>
<path d="M0 0 C2.86911611 2.74437194 3.91341714 4.11685479 4.3125 8.1875 C3.80396251 14.39165738 0.62054405 18.23720943 -3.125 22.9375 C-6.14916211 26.83989101 -7.13701292 30.16727237 -8 35 C-8.66 35 -9.32 35 -10 35 C-11.87784668 31.24430663 -11.5257697 27.08931993 -11 23 C-9.28285786 18.63159041 -6.89429525 15.02205171 -3.8125 11.5 C-1.24249311 7.95516291 -0.70606369 4.2642531 0 0 Z " fill="#E90000" transform="translate(358,120)"/>
<path d="M0 0 C0.33 0.66 0.66 1.32 1 2 C0.67 2.66 0.34 3.32 0 4 C-0.12318886 5.91372461 -0.17557433 7.83235166 -0.1875 9.75 C-0.20167969 10.77609375 -0.21585937 11.8021875 -0.23046875 12.859375 C-0.13111947 16.01593709 -0.13111947 16.01593709 0.9921875 18.921875 C2.18691384 22.57088414 2.30081016 25.66573157 2.3125 29.5 C2.32925781 30.7684375 2.34601563 32.036875 2.36328125 33.34375 C1.97459187 37.25572056 1.05880858 39.67384697 -1 43 C-1.99 43.495 -1.99 43.495 -3 44 C-2.96519531 42.948125 -2.96519531 42.948125 -2.9296875 41.875 C-2.91164063 40.92625 -2.89359375 39.9775 -2.875 39 C-2.84019531 37.6078125 -2.84019531 37.6078125 -2.8046875 36.1875 C-2.99999915 33.00001389 -3.71173014 30.18154266 -4.53271484 27.10595703 C-5.3202587 23.55666064 -5.36844236 20.06059602 -5.375 16.4375 C-5.39949219 15.72142578 -5.42398437 15.00535156 -5.44921875 14.26757812 C-5.47936618 8.74557296 -4.07576015 5.57828667 -1 1 C-0.67 0.67 -0.34 0.34 0 0 Z " fill="#EA0000" transform="translate(369,174)"/>
<path d="M0 0 C0.51691406 0.30164063 1.03382813 0.60328125 1.56640625 0.9140625 C5.69480885 2.75627104 10.15858998 3.23671223 14.58984375 4.0234375 C18.2811358 5.08050853 20.06213081 6.60938095 23 9 C25.64813932 9.68273592 25.64813932 9.68273592 28.3125 9.75 C29.63701172 9.83507812 29.63701172 9.83507812 30.98828125 9.921875 C31.65214844 9.94765625 32.31601563 9.9734375 33 10 C33 10.66 33 11.32 33 12 C21.93805292 13.96656837 13.06542698 13.51423855 3 8 C1.16796875 6.5 1.16796875 6.5 0 5 C-0.1875 2.3125 -0.1875 2.3125 0 0 Z " fill="#00E4E4" transform="translate(188,283)"/>
<path d="M0 0 C1.5 1.0625 1.5 1.0625 3 3 C3.1875 6.6875 3.1875 6.6875 3 10 C0.29968825 11.72819952 -1.09810968 11.99818315 -4.375 11.9375 C-8.51324476 12.00884905 -10.63555626 12.5968259 -14 15 C-14.97474816 18.08961458 -14.97474816 18.08961458 -15 21 C-15.721875 20.38125 -16.44375 19.7625 -17.1875 19.125 C-21.2489218 16.0563702 -25.02197864 14.85337509 -30 14 C-28.125 10.125 -28.125 10.125 -27 9 C-25.181878 8.90035112 -23.35991216 8.86919505 -21.5390625 8.8671875 C-19.87230469 8.86525391 -19.87230469 8.86525391 -18.171875 8.86328125 C-16.41617188 8.86908203 -16.41617188 8.86908203 -14.625 8.875 C-13.46226562 8.87113281 -12.29953125 8.86726562 -11.1015625 8.86328125 C-9.4309375 8.86521484 -9.4309375 8.86521484 -7.7265625 8.8671875 C-6.70127441 8.86831543 -5.67598633 8.86944336 -4.61962891 8.87060547 C-2 9 -2 9 1 10 C0.84402344 9.36191406 0.68804687 8.72382813 0.52734375 8.06640625 C0.33269531 7.24011719 0.13804687 6.41382813 -0.0625 5.5625 C-0.35833984 4.32693359 -0.35833984 4.32693359 -0.66015625 3.06640625 C-0.77230469 2.38449219 -0.88445312 1.70257813 -1 1 C-0.67 0.67 -0.34 0.34 0 0 Z " fill="#000707" transform="translate(216,237)"/>
<path d="M0 0 C0.66 0 1.32 0 2 0 C4.40123852 5.70294148 5.30860366 12.01150142 3.34765625 17.98828125 C0.97597873 22.57895319 -2.7316684 26.12991496 -7 29 C-7.66 29 -8.32 29 -9 29 C-8.33271371 23.05929845 -6.05223059 18.33839227 -3.52734375 13.00976562 C-1.51156596 8.61132161 -0.45290624 4.82470952 0 0 Z " fill="#E80000" transform="translate(325,131)"/>
<path d="M0 0 C2.82400003 1.19476924 4.62846829 2.53681666 7 4.5625 C9.59115237 6.6678113 10.785083 7.62904804 14 8 C14 8.66 14 9.32 14 10 C19.87883349 12.61281488 25.70731728 12.18328202 32 12 C32 12.66 32 13.32 32 14 C22.59384292 18.68217597 22.59384292 18.68217597 17 18 C16.34 17.67 15.68 17.34 15 17 C12.04211431 16.5832448 12.04211431 16.5832448 9 17 C7.08743288 18.88077873 7.08743288 18.88077873 6 21 C5.67 20.34 5.34 19.68 5 19 C5.680625 18.2575 6.36125 17.515 7.0625 16.75 C9.22066356 14.29813174 9.22066356 14.29813174 8.875 12.0859375 C7.72820859 9.3520687 6.10400376 7.88484299 3.9375 5.875 C2.59001493 4.61987331 1.26847218 3.33492972 0 2 C0 1.34 0 0.68 0 0 Z " fill="#001E1E" transform="translate(329,301)"/>
<path d="M0 0 C3.4375 1 3.4375 1 5.4375 2.6875 C6.82656225 5.89970645 6.49271374 7.6936636 5.4375 11 C3.31318495 13.27605184 1.99643694 13.90218604 -1.0625 14.4375 C-4.46084723 13.84278924 -5.57491034 12.79734842 -7.5625 10 C-8.17225382 6.34147708 -8.00793026 4.69487121 -6 1.5625 C-3.5625 0 -3.5625 0 0 0 Z " fill="#141111" transform="translate(214.5625,256)"/>
<path d="M0 0 C2.38611708 0.89878598 3.55858833 1.97939761 5.29296875 3.83203125 C5.81375 4.37988281 6.33453125 4.92773438 6.87109375 5.4921875 C7.2578125 5.91371094 7.64453125 6.33523438 8.04296875 6.76953125 C6.67142371 9.72362826 5.05433151 12.20961501 3.04296875 14.76953125 C-0.8653221 14.20480115 -2.85623348 12.34821154 -5.70703125 9.70703125 C-6.50625 8.97355469 -7.30546875 8.24007813 -8.12890625 7.484375 C-8.7321875 6.91847656 -9.33546875 6.35257812 -9.95703125 5.76953125 C-3.91856332 -0.46146754 -3.91856332 -0.46146754 0 0 Z " fill="#00F7F7" transform="translate(338.95703125,294.23046875)"/>
<path d="M0 0 C3.46161603 2.97257886 4.5303845 4.8319576 4.9765625 9.359375 C5.09 10.39320313 5.2034375 11.42703125 5.3203125 12.4921875 C5.42085937 13.56726563 5.52140625 14.64234375 5.625 15.75 C6.33246943 22.67309374 7.10439241 29.29246546 9 36 C5.59155912 34.62090338 4.33262465 33.39436506 2.8125 30.0625 C2.48894531 29.37285156 2.16539062 28.68320313 1.83203125 27.97265625 C0.30336676 24.34835781 -0.11922645 21.57998834 -0.09765625 17.67578125 C-0.09443359 16.64775391 -0.09121094 15.61972656 -0.08789062 14.56054688 C-0.07951172 13.48869141 -0.07113281 12.41683594 -0.0625 11.3125 C-0.05798828 10.22904297 -0.05347656 9.14558594 -0.04882812 8.02929688 C-0.03703743 5.35280915 -0.02058063 2.67643223 0 0 Z " fill="#E10000" transform="translate(163,149)"/>
<path d="M0 0 C0.93972656 0.63228516 0.93972656 0.63228516 1.8984375 1.27734375 C3.12433594 2.09912109 3.12433594 2.09912109 4.375 2.9375 C5.18710938 3.48277344 5.99921875 4.02804688 6.8359375 4.58984375 C8.92719184 6.01093879 8.92719184 6.01093879 11 7 C10.67 5.35 10.34 3.7 10 2 C13.36720387 3.39332574 14.9859524 4.9789286 17 8 C16.67 8.66 16.34 9.32 16 10 C15.01 9.34 14.02 8.68 13 8 C13.33 12.29 13.66 16.58 14 21 C12 20 12 20 10.8125 17.8125 C9.1256552 15.19498221 7.81653218 13.9101358 5.4375 12 C2.50324135 9.58573655 0.90106373 7.80449131 0 4 C0 2.68 0 1.36 0 0 Z " fill="#120201" transform="translate(237,221)"/>
<path d="M0 0 C0.33 0 0.66 0 1 0 C1.36031186 5.06438342 1.51967498 8.90290837 -0.6875 13.5625 C-3.20171045 16.21261372 -4.40668306 16.80037128 -8 17 C-8.2475 16.360625 -8.495 15.72125 -8.75 15.0625 C-9.80256744 12.82922897 -9.80256744 12.82922897 -12 12.3125 C-12.99 12.1578125 -12.99 12.1578125 -14 12 C-14.66 11.67 -15.32 11.34 -16 11 C-16 10.34 -16 9.68 -16 9 C-12.7 9 -9.4 9 -6 9 C-5.34 7.68 -4.68 6.36 -4 5 C-2.71937515 3.2925002 -1.3927289 1.61736259 0 0 Z " fill="#00F3F3" transform="translate(288,339)"/>
<path d="M0 0 C2.88164201 1.33586054 5.25276708 2.83637331 7.6875 4.875 C8.28949219 5.36742187 8.89148438 5.85984375 9.51171875 6.3671875 C11.22763695 8.24974342 11.70242978 9.4860447 12 12 C10.9375 13.75 10.9375 13.75 9 15 C5.8125 15.1875 5.8125 15.1875 3 15 C0.74315457 9.63999211 -0.36263859 5.8022175 0 0 Z " fill="#00F3F3" transform="translate(230,340)"/>
<path d="M0 0 C4.01100495 0.55837656 6.1210197 2.57028039 9.0625 5.25 C9.91972656 6.01828125 10.77695312 6.7865625 11.66015625 7.578125 C13.92076961 9.91799192 15.45804533 12.14864775 17 15 C15.02 15.99 15.02 15.99 13 17 C12.32453125 16.31292969 11.6490625 15.62585938 10.953125 14.91796875 C10.06109375 14.01691406 9.1690625 13.11585938 8.25 12.1875 C6.92742187 10.84751953 6.92742187 10.84751953 5.578125 9.48046875 C3.46551149 7.44787848 1.39205335 5.68226182 -1 4 C-0.67 2.68 -0.34 1.36 0 0 Z " fill="#00F3F2" transform="translate(343,288)"/>
<path d="M0 0 C-1.29945006 3.89835017 -2.59019603 6.60392154 -6 9 C-12.11244339 9.11532912 -15.44896206 6.71513302 -20 3 C-20 2.67 -20 2.34 -20 2 C-17.41703099 1.66361334 -14.83368737 1.3307835 -12.25 1 C-11.15558594 0.85691406 -11.15558594 0.85691406 -10.0390625 0.7109375 C-6.65143196 0.27978452 -3.42145141 0 0 0 Z " fill="#F20000" transform="translate(246,365)"/>
<path d="M0 0 C5 2 5 2 7.3125 3.0625 C10.87375623 4.30479869 14.24882052 4.61852412 18 5 C16.93363297 8.09246438 15.99355341 9.00415447 13.1875 10.8125 C10 12 10 12 7.4375 12.1875 C3.57607818 10.3062945 1.75505561 6.83871738 0 3 C0 2.01 0 1.02 0 0 Z " fill="#F20000" transform="translate(270,363)"/>
<path d="M0 0 C0.33 0.66 0.66 1.32 1 2 C2.78857422 2.07347656 2.78857422 2.07347656 4.61328125 2.1484375 C6.17971068 2.22347604 7.74611579 2.2990234 9.3125 2.375 C10.09818359 2.4059375 10.88386719 2.436875 11.69335938 2.46875 C12.8293457 2.52675781 12.8293457 2.52675781 13.98828125 2.5859375 C14.68477783 2.6173584 15.38127441 2.6487793 16.09887695 2.68115234 C18 3 18 3 21 5 C20.01 5 19.02 5 18 5 C18 6.32 18 7.64 18 9 C16.08364783 9.05423638 14.16685075 9.09289963 12.25 9.125 C10.64898437 9.15980469 10.64898437 9.15980469 9.015625 9.1953125 C6.07529894 9.00487687 4.47638122 8.52670104 2 7 C2 5.68 2 4.36 2 3 C1.34 3 0.68 3 0 3 C0 2.01 0 1.02 0 0 Z " fill="#003636" transform="translate(204,272)"/>
<path d="M0 0 C2.3349917 3.64842453 2.07914039 6.76104306 2 11 C-0.56280208 10.85845864 -3.12515485 10.71191438 -5.6875 10.5625 C-6.40873047 10.52318359 -7.12996094 10.48386719 -7.87304688 10.44335938 C-15.70273503 9.97858337 -15.70273503 9.97858337 -19 9 C-20.375 6.625 -20.375 6.625 -21 4 C-20.67 3.01 -20.34 2.02 -20 1 C-19.38125 1.804375 -18.7625 2.60875 -18.125 3.4375 C-16.25835959 6.03874519 -16.25835959 6.03874519 -14 7 C-8.3863452 7.62366208 -8.3863452 7.62366208 -3.625 5.1875 C-2.36704087 3.49409348 -1.17015276 1.75522914 0 0 Z " fill="#00EEEE" transform="translate(224,265)"/>
<path d="M0 0 C2.4375 1.5625 2.4375 1.5625 4 4 C4.78720048 8.95936303 4.78720048 8.95936303 4 12 C1.4375 15.0625 1.4375 15.0625 -2 17 C-6.34163268 17.14971147 -8.19555019 16.72194213 -11.4375 13.8125 C-13.30215998 10.45611204 -13.6303761 8.7822566 -13 5 C-9.09189138 -0.86216294 -6.85666425 -1.53683854 0 0 Z M-11 5 C-11.60975382 8.65852292 -11.44543026 10.30512879 -9.4375 13.4375 C-6.98268571 15.32042676 -6.98268571 15.32042676 -3.4375 15 C-0.03725376 14.26294804 -0.03725376 14.26294804 2 12.3125 C3.38906225 9.10029355 3.05521374 7.3063364 2 4 C-0.12431505 1.72394816 -1.44106306 1.09781396 -4.5 0.5625 C-7.89834723 1.15721076 -9.01241034 2.20265158 -11 5 Z " fill="#00DFDF" transform="translate(218,255)"/>
<path d="M0 0 C2 2 2 2 2 5 C1.01 5 0.02 5 -1 5 C-1 4.01 -1 3.02 -1 2 C-1.99 2.33 -2.98 2.66 -4 3 C-4 3.66 -4 4.32 -4 5 C-5.44450948 6.219808 -6.8932087 7.43677703 -8.39453125 8.5859375 C-10.41141142 10.26554207 -10.41141142 10.26554207 -13 14 C-13.33 10.7 -13.66 7.4 -14 4 C-9.09917836 0.79946342 -6.04224293 -0.71085211 0 0 Z " fill="#00EDED" transform="translate(215,248)"/>
<path d="M0 0 C1.91778749 1.91778749 2.74218105 3.26242229 3.91015625 5.66015625 C4.26013672 6.37107422 4.61011719 7.08199219 4.97070312 7.81445312 C5.51114258 8.92723633 5.51114258 8.92723633 6.0625 10.0625 C8.08994509 14.84702368 8.08994509 14.84702368 11 19 C11.04080783 20.99958364 11.04254356 23.00045254 11 25 C5.5658091 21.42896026 2.30718718 16.13808949 0.36328125 9.984375 C-0.24787029 6.64604187 -0.05646099 3.38765941 0 0 Z " fill="#E10000" transform="translate(151,200)"/>
<path d="M0 0 C0.51046875 0.29648437 1.0209375 0.59296875 1.546875 0.8984375 C4.71586127 2.32145363 7.84867392 2.93213728 11.25 3.625 C13.14492187 4.01558594 13.14492187 4.01558594 15.078125 4.4140625 C16.04234375 4.60742188 17.0065625 4.80078125 18 5 C17.67 5.99 17.34 6.98 17 8 C14.69 7.67 12.38 7.34 10 7 C10.66 7.66 11.32 8.32 12 9 C11.67 9.66 11.34 10.32 11 11 C6.53215689 9.75316006 3.26302042 8.35899161 0 5 C-0.3125 2.25 -0.3125 2.25 0 0 Z " fill="#00E9E9" transform="translate(188,283)"/>
<path d="M0 0 C0.66666667 1.33333333 1.33333333 2.66666667 2 4 C2.33 4.639375 2.66 5.27875 3 5.9375 C5.59588441 11.2915116 6.74393777 16.31037706 7.5078125 22.203125 C8.00437336 25.02485178 8.84559427 27.38589115 10 30 C10.33 30 10.66 30 11 30 C11 32.31 11 34.62 11 37 C7.15342399 35.076712 6.49927358 29.7642728 5.16015625 25.8515625 C3.775466 21.51452642 3.1558852 17.14632279 2.53515625 12.64453125 C1.76148915 8.82137339 0.18399359 6.2031906 -2 3 C-1.34 3 -0.68 3 0 3 C0 2.01 0 1.02 0 0 Z " fill="#260000" transform="translate(329,217)"/>
<path d="M0 0 C2.07577989 2.34634094 3.69805181 4.80346565 5.3671875 7.453125 C7.30266015 10.47209191 9.36840012 12.58770011 12 15 C13 16 14 17 15 18 C14.67 18.66 14.34 19.32 14 20 C7.73043121 15.08205253 3.30529205 9.68665672 -1 3 C-5.4571874 3.26218749 -7.51522698 3.57711289 -10.9375 6.5625 C-11.618125 7.366875 -12.29875 8.17125 -13 9 C-12.71897086 5.62765029 -12.19628348 4.21360261 -9.875 1.6875 C-6.02822742 -0.57038826 -4.38212652 -1.05775468 0 0 Z " fill="#050D0D" transform="translate(303,315)"/>
<path d="M0 0 C2.54344286 2.27301934 3.87616437 4.45086481 5.25 7.5625 C5.60578125 8.34753906 5.9615625 9.13257813 6.328125 9.94140625 C7 12 7 12 6 14 C5.67 13.67 5.34 13.34 5 13 C2.32941149 12.85884839 -0.32432238 12.95752893 -3 13 C-2.88490339 11.58249437 -2.75746342 10.16598831 -2.625 8.75 C-2.55539062 7.96109375 -2.48578125 7.1721875 -2.4140625 6.359375 C-1.98492887 3.914123 -1.21399362 2.15163097 0 0 Z " fill="#150101" transform="translate(309,209)"/>
<path d="M0 0 C2.5625 0.25 2.5625 0.25 5 1 C6.36623674 3.73247348 6.128426 5.98198902 6 9 C5 10 5 10 2 10.125 C-1 10 -1 10 -2 9 C-2.1875 5.5625 -2.1875 5.5625 -2 2 C-1.34 1.34 -0.68 0.68 0 0 Z " fill="#00EBEA" transform="translate(237,321)"/>
<path d="M0 0 C0.69222656 0.39832031 1.38445312 0.79664063 2.09765625 1.20703125 C16.06047884 8.76792728 29.52284337 9.47867495 45 9 C42.09386919 11.90613081 39.64051096 11.31705955 35.66064453 11.38012695 C22.23979408 11.35698376 11.11763098 10.28372505 0 2 C0 1.34 0 0.68 0 0 Z " fill="#2F0403" transform="translate(274,274)"/>
<path d="M0 0 C4.72635264 1.18158816 8.69141696 2.79160106 13 5.046875 C15.92457682 6.44061864 18.86171924 7.21542981 22 8 C19 10 19 10 16.87890625 9.64453125 C9.13608684 6.86338364 9.13608684 6.86338364 6 4 C6.33 4.33 6.66 4.66 7 5 C7.99 6.485 7.99 6.485 9 8 C7.5164999 7.57742724 6.03823576 7.13643678 4.5625 6.6875 C3.73878906 6.44386719 2.91507812 6.20023437 2.06640625 5.94921875 C1.38449219 5.63597656 0.70257813 5.32273437 0 5 C-0.33 4.01 -0.66 3.02 -1 2 C-0.67 1.34 -0.34 0.68 0 0 Z " fill="#BE0000" transform="translate(269,271)"/>
<path d="M0 0 C3 0.125 3 0.125 4 1.125 C4.125 4.125 4.125 4.125 4 7.125 C3 8.125 3 8.125 0.0625 8.3125 C-3 8.125 -3 8.125 -5 6.125 C-4.27477017 0.17811542 -4.27477017 0.17811542 0 0 Z " fill="#EE0000" transform="translate(214,258.875)"/>
<path d="M0 0 C1.5 1.0625 1.5 1.0625 3 3 C3.63483327 8.50188835 2.29114761 12.05112117 0 17 C-0.69140522 19.77888613 -0.69140522 19.77888613 -1 22 C-1.66 22 -2.32 22 -3 22 C-3.1831111 16.68977816 -2.78539723 13.0411216 -1 8 C-0.55925346 5.3361473 -0.27806128 2.68792568 0 0 Z " fill="#E60000" transform="translate(335,163)"/>
<path d="M0 0 C0.66 0 1.32 0 2 0 C2.66 0.99 3.32 1.98 4 3 C6.4060889 4.22844823 6.4060889 4.22844823 9.125 5.1875 C10.03507813 5.53167969 10.94515625 5.87585938 11.8828125 6.23046875 C12.58148438 6.48441406 13.28015625 6.73835938 14 7 C14 8.65 14 10.3 14 12 C8.73155116 11.68070007 5.45889166 8.72633174 2 5 C0.5625 2.125 0.5625 2.125 0 0 Z " fill="#00EBEB" transform="translate(187,256)"/>
<path d="M0 0 C0 2.25 0 2.25 -1 5 C-5.70609959 8.5927053 -10.21894717 9.4817544 -16 9 C-16 8.67 -16 8.34 -16 8 C-12.535 7.505 -12.535 7.505 -9 7 C-8.7525 6.21625 -8.505 5.4325 -8.25 4.625 C-7 2 -7 2 -5.0625 0.6875 C-3 0 -3 0 0 0 Z " fill="#081818" transform="translate(250,347)"/>
<path d="M0 0 C0 0.99 0 1.98 0 3 C-0.969375 3.433125 -1.93875 3.86625 -2.9375 4.3125 C-6.27731765 5.7014861 -6.27731765 5.7014861 -7 9 C-7.7425 8.7525 -8.485 8.505 -9.25 8.25 C-10.1575 8.1675 -11.065 8.085 -12 8 C-14.33454661 9.83358335 -14.33454661 9.83358335 -16 12 C-16 11.01 -16 10.02 -16 9 C-11.95482201 5.05595146 -5.93496704 0 0 0 Z " fill="#0E0A0A" transform="translate(336,293)"/>
<path d="M0 0 C0.33 0.66 0.66 1.32 1 2 C0.5359375 3.051875 0.5359375 3.051875 0.0625 4.125 C-1.29477967 7.79763912 -1.63916975 11.15746186 -1 15 C0.81378992 18.34752558 0.81378992 18.34752558 3 21 C3.33 21.66 3.66 22.32 4 23 C0.04895229 21.71857912 -1.8286909 20.55021516 -4 17 C-4.93913848 11.94895789 -4.56461225 7.35622639 -2 2.875 C-1.34 1.92625 -0.68 0.9775 0 0 Z " fill="#240302" transform="translate(270,243)"/>
<path d="M0 0 C1.65 0.33 3.3 0.66 5 1 C4.34 1.66 3.68 2.32 3 3 C4.65 2.67 6.3 2.34 8 2 C8 2.66 8 3.32 8 4 C9.65 4 11.3 4 13 4 C13.33 3.34 13.66 2.68 14 2 C14.33 3.32 14.66 4.64 15 6 C13.08364783 6.05423638 11.16685075 6.09289963 9.25 6.125 C7.64898437 6.15980469 7.64898437 6.15980469 6.015625 6.1953125 C3.07529894 6.00487687 1.47638122 5.52670104 -1 4 C-0.67 2.68 -0.34 1.36 0 0 Z " fill="#00DFDF" transform="translate(207,275)"/>
<path d="M0 0 C0.515625 0.268125 1.03125 0.53625 1.5625 0.8125 C4.15540981 2.1391369 4.15540981 2.1391369 7.6875 3.25 C8.780625 3.8275 9.87375 4.405 11 5 C11.9375 8.1875 11.9375 8.1875 12 11 C7.2687747 9.50592885 7.2687747 9.50592885 5.9375 7 C5.628125 6.34 5.31875 5.68 5 5 C3.67479497 4.31731862 2.34187818 3.6492959 1 3 C0.67 2.01 0.34 1.02 0 0 Z " fill="#00E9E9" transform="translate(188,250)"/>
<path d="M0 0 C1.125 1.625 1.125 1.625 2 4 C0.63157895 9.36842105 0.63157895 9.36842105 -1 11 C-2.66617115 11.04063832 -4.33388095 11.042721 -6 11 C-6 12.65 -6 14.3 -6 16 C-6.33 16 -6.66 16 -7 16 C-7 13.36 -7 10.72 -7 8 C-6.21625 7.79375 -5.4325 7.5875 -4.625 7.375 C-1.69083714 6.19323388 -1.69083714 6.19323388 -0.6875 2.875 C-0.460625 1.92625 -0.23375 0.9775 0 0 Z " fill="#001313" transform="translate(242,301)"/>
<path d="M0 0 C3.44428265 1.44781793 5.36130962 3.27694609 7.75 6.125 C8.36359375 6.84945312 8.9771875 7.57390625 9.609375 8.3203125 C10.29773438 9.15175781 10.29773438 9.15175781 11 10 C10.67 10.66 10.34 11.32 10 12 C5.84438597 9.44996412 2.72110725 7.08166087 0 3 C0 2.01 0 1.02 0 0 Z " fill="#E20000" transform="translate(193,184)"/>
<path d="M0 0 C4.0813588 1.42476525 7.17298478 3.41336601 10.625 6 C13.39000188 8.06049456 16.13034848 10.08689899 19 12 C19 12.66 19 13.32 19 14 C15.94040112 13.40413716 14.01909183 12.49646273 11.58203125 10.56640625 C10.96779297 10.08236328 10.35355469 9.59832031 9.72070312 9.09960938 C9.09099609 8.59236328 8.46128906 8.08511719 7.8125 7.5625 C7.17119141 7.05912109 6.52988281 6.55574219 5.86914062 6.03710938 C1.13731787 2.27463574 1.13731787 2.27463574 0 0 Z " fill="#260203" transform="translate(273,277)"/>
<path d="M0 0 C0.66 0 1.32 0 2 0 C3.33359073 6.42548263 3.33359073 6.42548263 1.875 8.9375 C-0.53579338 10.30361625 -2.27294446 10.22111261 -5 10 C-5.66 8.68 -6.32 7.36 -7 6 C-5.02 6 -3.04 6 -1 6 C-1 5.01 -1 4.02 -1 3 C-0.67 2.01 -0.34 1.02 0 0 Z " fill="#DC0000" transform="translate(304,260)"/>
<path d="M0 0 C1.32 0 2.64 0 4 0 C4 2.31 4 4.62 4 7 C2.35 7.33 0.7 7.66 -1 8 C-1.93065133 5.39417629 -2.14917407 4.35801776 -1.0625 1.75 C-0.711875 1.1725 -0.36125 0.595 0 0 Z " fill="#00DFDF" transform="translate(252,324)"/>
<path d="M0 0 C0.99 0.33 1.98 0.66 3 1 C2.67 3.31 2.34 5.62 2 8 C0.0625 8.5625 0.0625 8.5625 -2 9 C-3 8 -3 8 -3.25 5.625 C-3 3 -3 3 -1.5 1.1875 C-1.005 0.795625 -0.51 0.40375 0 0 Z " fill="#00E1E1" transform="translate(247,322)"/>
<path d="M0 0 C1.32 0 2.64 0 4 0 C4.2295711 3.36704285 4.33943529 5.41370268 2.625 8.375 C2.08875 8.91125 1.5525 9.4475 1 10 C0.34 10 -0.32 10 -1 10 C-1.125 3.375 -1.125 3.375 0 0 Z " fill="#D70000" transform="translate(256,288)"/>
<path d="M0 0 C0.66 0 1.32 0 2 0 C2.25 5.625 2.25 5.625 0 9 C-0.39013716 10.9896995 -0.73202649 12.99019869 -1 15 C-1.66 14.67 -2.32 14.34 -3 14 C-3.29341888 8.32723489 -3.00559652 5.00932754 0 0 Z " fill="#E20000" transform="translate(225,148)"/>
<path d="M0 0 C2.475 0.495 2.475 0.495 5 1 C5.33 2.65 5.66 4.3 6 6 C4.34385343 6.38218767 2.67542976 6.71395102 1 7 C0 6 0 6 -0.0625 2.9375 C-0.041875 1.968125 -0.02125 0.99875 0 0 Z " fill="#00D0D0" transform="translate(230,269)"/>
<path d="M0 0 C3.02485781 0.5881668 6.01386614 1.24070528 9 2 C8.91291331 3.45945288 8.80473093 4.91765868 8.6875 6.375 C8.62949219 7.18710937 8.57148438 7.99921875 8.51171875 8.8359375 C8 11 8 11 5 13 C4.65820312 10.02148438 4.65820312 10.02148438 4.31640625 7.04296875 C4.02829265 4.80603607 4.02829265 4.80603607 3 2 C2.01 1.67 1.02 1.34 0 1 C0 0.67 0 0.34 0 0 Z " fill="#B30000" transform="translate(159,258)"/>
<path d="M0 0 C1.5 1.0625 1.5 1.0625 3 3 C3.1875 6.6875 3.1875 6.6875 3 10 C1.4375 11.125 1.4375 11.125 -1 12 C-4.75 11.125 -4.75 11.125 -8 10 C-8 9.67 -8 9.34 -8 9 C-5.03 9.33 -2.06 9.66 1 10 C0.84402344 9.36191406 0.68804687 8.72382813 0.52734375 8.06640625 C0.33269531 7.24011719 0.13804687 6.41382813 -0.0625 5.5625 C-0.25972656 4.73878906 -0.45695313 3.91507813 -0.66015625 3.06640625 C-0.77230469 2.38449219 -0.88445312 1.70257813 -1 1 C-0.67 0.67 -0.34 0.34 0 0 Z " fill="#0C2828" transform="translate(216,237)"/>
<path d="M0 0 C0.66 0 1.32 0 2 0 C1.67 2.31 1.34 4.62 1 7 C2.98 7.66 4.96 8.32 7 9 C6.67 9.66 6.34 10.32 6 11 C3.25913944 11.22223194 1.56036279 11.34781139 -0.8125 9.875 C-2.52849028 7.16554166 -2.333728 5.13704316 -2 2 C-1.34 1.34 -0.68 0.68 0 0 Z " fill="#150A0A" transform="translate(209,258)"/>
<path d="M0 0 C0.66 0 1.32 0 2 0 C4 2 4 2 4.125 5.125 C4.08375 6.07375 4.0425 7.0225 4 8 C3.34 8 2.68 8 2 8 C1.67 8.66 1.34 9.32 1 10 C1 8.35 1 6.7 1 5 C-0.98 4.34 -2.96 3.68 -5 3 C-4.360625 2.87625 -3.72125 2.7525 -3.0625 2.625 C-2.0415625 2.315625 -2.0415625 2.315625 -1 2 C-0.67 1.34 -0.34 0.68 0 0 Z " fill="#004D4D" transform="translate(200,258)"/>
<path d="M0 0 C0.33 0 0.66 0 1 0 C1.797837 6.69613196 2.12910853 13.25766581 2 20 C1.01 20 0.02 20 -1 20 C-0.67 13.4 -0.34 6.8 0 0 Z " fill="#450000" transform="translate(347,244)"/>
<path d="M0 0 C-0.66 2.64 -1.32 5.28 -2 8 C-3.65 8.33 -5.3 8.66 -7 9 C-6.53149863 4.78348764 -4.94559315 0 0 0 Z " fill="#141414" transform="translate(346,205)"/>
<path d="M0 0 C4.75 0.75 4.75 0.75 7 3 C7.125 6.625 7.125 6.625 7 10 C3.72713318 7.2180632 2.03572303 3.72045933 0 0 Z " fill="#E40000" transform="translate(182,302)"/>
<path d="M0 0 C0.43570313 0.42152344 0.87140625 0.84304688 1.3203125 1.27734375 C5.11013459 4.76365195 7.64559734 6.73880963 13 7 C10.08291076 8.98362069 8.87619096 8.9876191 5.25 8.625 C4.1775 8.41875 3.105 8.2125 2 8 C0.74335022 5.09399739 0 3.20395416 0 0 Z " fill="#00D9D9" transform="translate(203,266)"/>
<path d="M0 0 C1.77706209 2.66559313 2.87548273 5.0280615 4 8 C4.33 8 4.66 8 5 8 C5 10.31 5 12.62 5 15 C2.22295969 13.61147985 1.96617263 12.03211518 0.8125 9.1875 C0.44769531 8.31480469 0.08289063 7.44210938 -0.29296875 6.54296875 C-1.04115271 3.85198664 -0.9458895 2.584628 0 0 Z " fill="#3D0000" transform="translate(335,239)"/>
<path d="M0 0 C2.71329897 0.86031431 4.40863329 1.97772465 6.5625 3.8125 C5.5725 4.1425 4.5825 4.4725 3.5625 4.8125 C3.2325 5.8025 2.9025 6.7925 2.5625 7.8125 C1.9025 7.4825 1.2425 7.1525 0.5625 6.8125 C0.5625 5.4925 0.5625 4.1725 0.5625 2.8125 C-0.05625 3.01875 -0.675 3.225 -1.3125 3.4375 C-2.01375 3.56125 -2.715 3.685 -3.4375 3.8125 C-4.0975 3.1525 -4.7575 2.4925 -5.4375 1.8125 C-2.4375 -0.1875 -2.4375 -0.1875 0 0 Z " fill="#003838" transform="translate(248.4375,320.1875)"/>
<path d="M0 0 C4.84688192 0.78175515 9.3766367 2.39844278 14 4 C11 6 11 6 8.80859375 5.64453125 C7.63490234 5.23267578 7.63490234 5.23267578 6.4375 4.8125 C5.65246094 4.55082031 4.86742187 4.28914063 4.05859375 4.01953125 C2 3 2 3 0 0 Z " fill="#D90000" transform="translate(277,275)"/>
<path d="M0 0 C1.4391134 0.28359887 2.87625518 0.57721399 4.3125 0.875 C5.11300781 1.03742188 5.91351563 1.19984375 6.73828125 1.3671875 C9 2 9 2 12 4 C12 4.66 12 5.32 12 6 C10.55903414 5.57405412 9.12231288 5.13373367 7.6875 4.6875 C6.88699219 4.44386719 6.08648437 4.20023437 5.26171875 3.94921875 C2.90035427 2.95817977 1.66120007 1.91925057 0 0 Z " fill="#D70000" transform="translate(167,290)"/>
<path d="M0 0 C0.66 0 1.32 0 2 0 C3.01866229 1.65532623 4.01810813 3.32260138 5 5 C5.66 5.33 6.32 5.66 7 6 C7 6.66 7 7.32 7 8 C2.25 7.25 2.25 7.25 0 5 C-0.125 2.375 -0.125 2.375 0 0 Z " fill="#DC0000" transform="translate(151,237)"/>
<path d="M0 0 C2.6423701 1.32118505 3.01619984 2.65809192 4.25 5.3125 C4.62640625 6.09238281 5.0028125 6.87226563 5.390625 7.67578125 C6 10 6 10 5.109375 12.29296875 C4.74328125 12.85628906 4.3771875 13.41960937 4 14 C3.67 14 3.34 14 3 14 C2.49528803 12.23050388 1.99639315 10.45934777 1.5 8.6875 C1.2215625 7.70136719 0.943125 6.71523437 0.65625 5.69921875 C0 3 0 3 0 0 Z " fill="#2B0000" transform="translate(225,241)"/>
<path d="M0 0 C-0.33 1.65 -0.66 3.3 -1 5 C-2.65 5 -4.3 5 -6 5 C-6 3.68 -6 2.36 -6 1 C-3 0 -3 0 0 0 Z " fill="#009090" transform="translate(250,347)"/>
<path d="M0 0 C2.875 -0.125 2.875 -0.125 6 0 C6.66 0.66 7.32 1.32 8 2 C7.34 3.32 6.68 4.64 6 6 C6 5.34 6 4.68 6 4 C5.071875 3.7834375 5.071875 3.7834375 4.125 3.5625 C2 3 2 3 0 2 C0 1.34 0 0.68 0 0 Z " fill="#00BEBE" transform="translate(272,348)"/>
<path d="M0 0 C1.32 0.66 2.64 1.32 4 2 C4 3.32 4 4.64 4 6 C3.38125 5.814375 2.7625 5.62875 2.125 5.4375 C-0.04160178 4.76313824 -0.04160178 4.76313824 -2 6 C-1.125 1.125 -1.125 1.125 0 0 Z " fill="#810202" transform="translate(211,259)"/>
<path d="M0 0 C1.1055189 0.93590504 2.20935453 1.87379858 3.3125 2.8125 C3.92738281 3.33457031 4.54226563 3.85664063 5.17578125 4.39453125 C6.85424679 5.87172469 8.43882034 7.40039131 10 9 C9.67 9.66 9.34 10.32 9 11 C7.6781638 9.92807816 6.36782073 8.84197305 5.0625 7.75 C4.33160156 7.14671875 3.60070312 6.5434375 2.84765625 5.921875 C0.89673666 3.89258866 0.38268221 2.745593 0 0 Z " fill="#0C1313" transform="translate(308,324)"/>
<path d="M0 0 C0.99 0.33 1.98 0.66 3 1 C2.27683594 1.61488281 2.27683594 1.61488281 1.5390625 2.2421875 C0.90742188 2.78101563 0.27578125 3.31984375 -0.375 3.875 C-1.00148438 4.40867187 -1.62796875 4.94234375 -2.2734375 5.4921875 C-3.55836651 6.61432007 -4.79371975 7.79371975 -6 9 C-5.70381606 5.44579276 -5.19662957 4.19662957 -2.625 1.625 C-1.325625 0.820625 -1.325625 0.820625 0 0 Z " fill="#0F0808" transform="translate(296,315)"/>
<path d="M0 0 C2.31 1.98 4.62 3.96 7 6 C3 7 3 7 0.25 5.5625 C-0.4925 5.046875 -1.235 4.53125 -2 4 C-1.34 2.68 -0.68 1.36 0 0 Z " fill="#002626" transform="translate(345,284)"/>
<path d="M0 0 C0.33 0.66 0.66 1.32 1 2 C0.67 2.66 0.34 3.32 0 4 C-0.22622081 5.70363822 -0.40888473 7.41328701 -0.5625 9.125 C-0.68818359 10.49011719 -0.68818359 10.49011719 -0.81640625 11.8828125 C-0.87699219 12.58148438 -0.93757813 13.28015625 -1 14 C-1.33 14 -1.66 14 -2 14 C-2.2165625 12.6078125 -2.2165625 12.6078125 -2.4375 11.1875 C-2.92100111 7.99274889 -2.92100111 7.99274889 -4 5 C-2.0625 2.3125 -2.0625 2.3125 0 0 Z " fill="#BB0000" transform="translate(369,174)"/>
<path d="M0 0 C3.375 -0.125 3.375 -0.125 7 0 C9 2 9 2 9 5 C8.01 5 7.02 5 6 5 C6 4.01 6 3.02 6 2 C3.03 1.505 3.03 1.505 0 1 C0 0.67 0 0.34 0 0 Z " fill="#00C7C7" transform="translate(208,248)"/>
<path d="M0 0 C1.98 0.495 1.98 0.495 4 1 C3.34 2.65 2.68 4.3 2 6 C1.01 5.67 0.02 5.34 -1 5 C-0.67 3.35 -0.34 1.7 0 0 Z " fill="#7F0000" transform="translate(258,311)"/>
<path d="M0 0 C2 1.5625 2 1.5625 4 4 C4.25 7.75 4.25 7.75 4 11 C1.55160412 7.32740617 0 4.45351799 0 0 Z " fill="#E20000" transform="translate(190,293)"/>
<path d="M0 0 C0.8125 1.6875 0.8125 1.6875 1 4 C-1.125 6.75 -1.125 6.75 -4 9 C-6.8125 9.3125 -6.8125 9.3125 -9 9 C-8.4225 8.7525 -7.845 8.505 -7.25 8.25 C-3.51402637 6.17445909 -1.35608685 4.06826056 0 0 Z " fill="#013F3F" transform="translate(220,261)"/>
<path d="M0 0 C1.32 0 2.64 0 4 0 C4 1.65 4 3.3 4 5 C2.68 5 1.36 5 0 5 C0 3.35 0 1.7 0 0 Z " fill="#00DBDB" transform="translate(197,272)"/>
<path d="M0 0 C0.33 0.66 0.66 1.32 1 2 C1.66 2 2.32 2 3 2 C3 3.98 3 5.96 3 8 C2.34 8 1.68 8 1 8 C0.34 5.69 -0.32 3.38 -1 1 C-0.67 0.67 -0.34 0.34 0 0 Z " fill="#330102" transform="translate(272,220)"/>
<path d="M0 0 C5.53846154 -0.36923077 5.53846154 -0.36923077 7.875 1.5 C8.24625 1.995 8.6175 2.49 9 3 C3.46153846 3.36923077 3.46153846 3.36923077 1.125 1.5 C0.75375 1.005 0.3825 0.51 0 0 Z " fill="#051414" transform="translate(197,289)"/>
<path d="M0 0 C0.66 0.33 1.32 0.66 2 1 C1.34 2.98 0.68 4.96 0 7 C-0.66 7 -1.32 7 -2 7 C-2.125 4.625 -2.125 4.625 -2 2 C-1.34 1.34 -0.68 0.68 0 0 Z " fill="#00E5E5" transform="translate(259,325)"/>
<path d="M0 0 C2.97 0.33 5.94 0.66 9 1 C8.34 1.66 7.68 2.32 7 3 C4.27130593 2.96712417 1.7033382 2.43602229 -1 2 C-0.67 1.34 -0.34 0.68 0 0 Z " fill="#5C0302" transform="translate(292,282)"/>
<path d="M0 0 C0.66 0 1.32 0 2 0 C3.25664978 2.90600261 4 4.79604584 4 8 C3.01 8 2.02 8 1 8 C0.67 5.36 0.34 2.72 0 0 Z " fill="#161717" transform="translate(203,221)"/>
<path d="M0 0 C5.57142857 5.14285714 5.57142857 5.14285714 6 9 C0.42857143 3.85714286 0.42857143 3.85714286 0 0 Z " fill="#D80000" transform="translate(212,193)"/>
<path d="M0 0 C2.31 0 4.62 0 7 0 C7 0.99 7 1.98 7 3 C5.35 3 3.7 3 2 3 C2 2.34 2 1.68 2 1 C1.34 0.67 0.68 0.34 0 0 Z " fill="#006F6F" transform="translate(213,276)"/>
<path d="M0 0 C1.15941038 3.47823115 0.70820884 5.45895578 0 9 C-0.66 8.67 -1.32 8.34 -2 8 C-2.125 5.125 -2.125 5.125 -2 2 C-1.34 1.34 -0.68 0.68 0 0 Z " fill="#FB0000" transform="translate(224,154)"/>
</svg>
